<svg xmlns="http://www.w3.org/2000/svg" version="1.1" viewBox="0 0 45 45" sillyvg="true" node-id="1">

 <g>
  <g stroke="null" id="svg_43">
   <g stroke="null" id="svg_3" node-id="171">
    <path stroke="null" target-y="48.13" target-x="262.71" target-width="160.31" target-height="160.31" node-id="5" id="矩形_16" group-id="1" fill-rule="nonzero" fill="#b9edb1" d="m10.42878,5.9785l7.74165,7.74165c0.76112,0.76112 0.76112,1.99615 0,2.75727l0,0c-0.76112,0.76112 -1.99615,0.76112 -2.75727,0l-7.74165,-7.74165c-0.76112,-0.76112 -0.76112,-1.9954 0,-2.75727l0,0c0.76187,-0.76112 1.99615,-0.76112 2.75727,0z"/>
    <path stroke="null" target-y="28" target-x="238" target-width="484" target-height="484" node-id="6" id="椭圆_1" group-id="1" fill-rule="nonzero" fill="#b6edae" d="m41.35116,21.85474c0,10.02201 -8.12484,18.14685 -18.14685,18.14685c-10.02201,0 -18.14685,-8.12484 -18.14685,-18.14685c0,-10.02201 8.12484,-18.14685 18.14685,-18.14685c10.02201,0 18.14685,8.12484 18.14685,18.14685z"/>
    <path stroke="null" target-y="372.45" target-x="628.92" target-width="110.63" target-height="110.62" node-id="7" id="矩形_13" group-id="1" fill-rule="nonzero" fill="#b9edb1" d="m38.8376,30.50298l2.863,2.86375c0.96658,0.96658 0.96658,2.53306 0,3.49964l0,0c-0.96583,0.96583 -2.53306,0.96583 -3.49889,0l-2.86375,-2.86375c-0.96658,-0.96583 -0.96658,-2.53306 0,-3.49964l0,0c0.96658,-0.96583 2.53381,-0.96583 3.49964,0z"/>
    <path stroke="null" target-y="81.13" target-x="174.71" target-width="160.30998" target-height="160.31" node-id="8" id="矩形_15" group-id="1" fill-rule="nonzero" fill="#b9edb1" d="m3.82993,8.45307l7.74165,7.74165c0.76112,0.76112 0.76112,1.99615 0,2.75727l0,0c-0.76112,0.76112 -1.99615,0.76112 -2.75727,0l-7.74165,-7.74165c-0.76112,-0.76112 -0.76112,-1.9954 0,-2.75727l0,0c0.76187,-0.76112 1.99615,-0.76112 2.75727,0z"/>
    <path stroke="null" target-y="284.27" target-x="654.65" target-width="100.07996" target-height="100.08002" node-id="9" id="矩形_14" group-id="1" fill-rule="nonzero" fill="#b9edb1" d="m38.93958,23.49545l4.29525,4.29525c0.57065,0.57065 0.57065,1.49674 0,2.06739l0,0c-0.5714,0.5714 -1.49674,0.5714 -2.06814,0l-4.2945,-4.2945c-0.5714,-0.5714 -0.5714,-1.49674 0,-2.06814l0,0c0.57065,-0.57065 1.49674,-0.57065 2.06739,0z"/>
   </g>
   <g stroke="null" id="svg_4" node-id="172">
    <path stroke="null" id="svg_5" target-y="78.05" target-x="373.64" target-width="268.71997" target-height="317.8" node-id="76" group-id="2" fill-rule="nonzero" fill="#ffc670" d="m19.04404,7.46624l14.48973,1.26503l0.2752,0.04349l0.25646,0.07574l0.23921,0.10798l0.22346,0.13798l0.20097,0.16272l0.17922,0.18747l0.15372,0.20921l0.12448,0.22496l0.09748,0.24446l0.06449,0.25496l0.03074,0.26545l-0.00525,0.2782l-1.61822,18.52253l-0.04274,0.2752l-0.07574,0.25646l-0.10798,0.23996l-0.13873,0.22346l-0.16197,0.20022l-0.18747,0.17922l-0.20921,0.15372l-0.22571,0.12523l-0.24371,0.09748l-0.25496,0.06449l-0.26545,0.02999l-0.27895,-0.0045l-14.48898,-1.26578l-0.2752,-0.04349l-0.25646,-0.07574l-0.23921,-0.10798l-0.22421,-0.13798l-0.20022,-0.16272l-0.17922,-0.18747l-0.15372,-0.20846l-0.12523,-0.22571l-0.09673,-0.24446l-0.06524,-0.25496l-0.02999,-0.26545l0.00525,-0.2782l1.61747,-18.52253l0.04349,-0.2752l0.07574,-0.25646l0.10798,-0.23921l0.13798,-0.22421l0.16272,-0.20022l0.18747,-0.17922l0.20846,-0.15372l0.22571,-0.12523l0.24446,-0.09673l0.25496,-0.06524l0.26545,-0.02999l0.2782,0.00525z"/>
    <path stroke="null" id="svg_6" target-y="78.01" target-x="373.64" target-width="268.71997" target-height="317.88" node-id="78" group-id="2" fill-rule="nonzero" fill="#3d3d63" d="m31.74083,31.29485l-0.17772,-0.0075l-14.48898,-1.26578l-0.2752,-0.04349l-0.25571,-0.07574l-0.23921,-0.10798l-0.22421,-0.13798l-0.20022,-0.16272l-0.17922,-0.18822l-0.15372,-0.20846l-0.12523,-0.22571l-0.09748,-0.24446l-0.06524,-0.25496l-0.02999,-0.2647l0.0045,-0.2782l1.61822,-18.52253l0.04049,-0.26245l0.06899,-0.24446l0.09523,-0.22721l0.12373,-0.21371l0.14922,-0.19722l0.16797,-0.17397l0.18822,-0.15297l0.20996,-0.13123l0.22271,-0.10498l0.23471,-0.07574l0.24896,-0.04649l0.26545,-0.018l0.17697,0.0075l14.48973,1.26578l0.27445,0.04349l0.25646,0.07574l0.23921,0.10798l0.22421,0.13873l0.20022,0.16197l0.17922,0.18822l0.15372,0.20846l0.12523,0.22571l0.09748,0.24446l0.06449,0.25496l0.03074,0.2647l-0.00525,0.27895l-1.61747,18.52178l-0.04124,0.2632l-0.06824,0.24371l-0.09598,0.22796l-0.12298,0.21296l-0.14922,0.19722l-0.16797,0.17472l-0.18822,0.15222l-0.20996,0.13123l-0.22271,0.10498l-0.23471,0.07574l-0.24896,0.04724l-0.26545,0.01725zm-12.87376,-22.33712l-0.13273,0.018l-0.11623,0.04574l-0.10423,0.07499l-0.08324,0.09748l-0.05549,0.11173l-0.02999,0.13123l-1.61747,18.52253l0.00675,0.14098l0.04199,0.12898l0.07199,0.11248l0.09898,0.09148l0.11923,0.06299l0.13798,0.03149l14.48898,1.26578l0.14173,-0.0075l0.12898,-0.04199l0.11248,-0.07349l0.09148,-0.09898l0.06299,-0.11848l0.03074,-0.13723l1.61822,-18.52178l-0.00675,-0.14173l-0.04199,-0.12823l-0.07274,-0.11323l-0.09823,-0.09073l-0.11923,-0.06374l-0.13798,-0.03074l-14.48973,-1.26578l-0.04649,-0.00225z"/>
   </g>
   <g stroke="null" id="svg_7" node-id="173">
    <path stroke="null" id="svg_8" target-y="127" target-x="332" target-width="248" target-height="302" node-id="82" group-id="3" fill-rule="nonzero" fill="#fff6e6" d="m13.98092,11.1316l14.84742,0l0.25721,0.018l0.24296,0.04949l0.22946,0.07949l0.21746,0.10948l0.19797,0.13423l0.18072,0.15822l0.15822,0.18072l0.13423,0.19797l0.10948,0.21746l0.07949,0.22946l0.04949,0.24296l0.018,0.25721l0,18.89672l-0.018,0.25721l-0.04949,0.24296l-0.07949,0.22946l-0.10948,0.21746l-0.13423,0.19797l-0.15822,0.18072l-0.18072,0.15822l-0.19797,0.13423l-0.21746,0.10948l-0.22946,0.07949l-0.24296,0.04949l-0.25721,0.018l-14.84742,0l-0.25721,-0.018l-0.24296,-0.04949l-0.22946,-0.07949l-0.21746,-0.10948l-0.19797,-0.13423l-0.18072,-0.15822l-0.15822,-0.18072l-0.13423,-0.19797l-0.10948,-0.21746l-0.07949,-0.22946l-0.04949,-0.24296l-0.018,-0.25721l0,-18.89672l0.018,-0.25721l0.04949,-0.24296l0.07949,-0.22946l0.10948,-0.21746l0.13423,-0.19797l0.15822,-0.18072l0.18072,-0.15822l0.19797,-0.13423l0.21746,-0.10948l0.22946,-0.07949l0.24296,-0.04949l0.25721,-0.018z"/>
    <path stroke="null" id="svg_9" target-y="127" target-x="332" target-width="248" target-height="302" node-id="84" group-id="3" fill-rule="nonzero" fill="#3d3d63" d="m28.82834,33.77766l-14.84742,0l-0.25721,-0.018l-0.24221,-0.04949l-0.22946,-0.08024l-0.21746,-0.10948l-0.19797,-0.13348l-0.18072,-0.15897l-0.15897,-0.18072l-0.13348,-0.19797l-0.10948,-0.21746l-0.08024,-0.22946l-0.04949,-0.24221l-0.018,-0.25721l0,-18.89672l0.018,-0.25721l0.04949,-0.24221l0.08024,-0.22946l0.10948,-0.21746l0.13348,-0.19797l0.15897,-0.18072l0.18072,-0.15897l0.19797,-0.13348l0.21746,-0.10948l0.22946,-0.08024l0.24221,-0.04949l0.25721,-0.018l14.84742,0l0.25721,0.018l0.24221,0.04949l0.22946,0.08024l0.21746,0.10948l0.19797,0.13348l0.18072,0.15897l0.15897,0.18072l0.13348,0.19797l0.10948,0.21746l0.08024,0.22946l0.04949,0.24221l0.018,0.25721l0,18.89672l-0.018,0.25721l-0.04949,0.24221l-0.08024,0.22946l-0.10948,0.21746l-0.13348,0.19797l-0.15897,0.18072l-0.18072,0.15897l-0.19797,0.13348l-0.21746,0.10948l-0.22946,0.08024l-0.24221,0.04949l-0.25721,0.018zm-14.84742,-21.14633l-0.10198,0.01425l-0.08698,0.03674l-0.07574,0.05924l-0.05924,0.07574l-0.03674,0.08698l-0.01425,0.10198l0,18.89672l0.01425,0.10198l0.03674,0.08698l0.05924,0.07574l0.07574,0.05924l0.08698,0.03674l0.10198,0.01425l14.84742,0l0.10198,-0.01425l0.08698,-0.03674l0.07574,-0.05924l0.05924,-0.07574l0.03674,-0.08698l0.01425,-0.10198l0,-18.89672l-0.01425,-0.10198l-0.03674,-0.08698l-0.05924,-0.07574l-0.07574,-0.05924l-0.08698,-0.03674l-0.10198,-0.01425l-14.84742,0z"/>
   </g>
   <path stroke="null" target-y="379.56" target-x="351.98" target-width="107.54999" target-height="29.54999" node-id="16" id="路径_95" fill-rule="nonzero" fill="#ffb038" d="m13.60598,30.07031l4.42423,0.70788l3.63912,0l0,1.49974c0,0 -5.97271,0.00825 -7.93062,-0.00825c-0.015,-0.03074 -0.10948,-0.03074 -0.13273,-0.32994c-0.0015,-0.69063 0,-1.86943 0,-1.86943z"/>
   <path stroke="null" id="svg_10" target-y="356" target-x="360" target-width="8" target-height="53" node-id="88" fill-rule="nonzero" fill="#ffc670" d="m14.20588,28.30362l0.5999,0l0,3.97431l-0.5999,0l0,-3.97431z"/>
   <path stroke="null" id="svg_11" target-y="390" target-x="375" target-width="8" target-height="19" node-id="90" fill-rule="nonzero" fill="#ffc670" d="m15.33068,30.85317l0.5999,0l0,1.42475l-0.5999,0l0,-1.42475z"/>
   <path stroke="null" id="svg_12" target-y="459" target-x="395" target-width="108" target-height="10" node-id="92" fill-rule="nonzero" fill="#3d3d63" d="m24.55408,36.77714l-7.34872,0c-0.20696,0 -0.37493,-0.16797 -0.37493,-0.37493c0,-0.20696 0.16797,-0.37493 0.37493,-0.37493l7.34872,0c0.20696,0 0.37493,0.16797 0.37493,0.37493c0,0.20696 -0.16797,0.37493 -0.37493,0.37493z"/>
   <path stroke="null" id="svg_13" target-y="483" target-x="516" target-width="155" target-height="10" node-id="94" fill-rule="nonzero" fill="#3d3d63" d="m37.15189,38.57683l-10.87311,0c-0.20696,0 -0.37493,-0.16797 -0.37493,-0.37493c0,-0.20696 0.16797,-0.37493 0.37493,-0.37493l10.87311,0c0.20696,0 0.37493,0.16797 0.37493,0.37493c0,0.20696 -0.16797,0.37493 -0.37493,0.37493z"/>
   <path stroke="null" id="svg_14" target-y="459" target-x="289" target-width="77" target-height="10" node-id="96" fill-rule="nonzero" fill="#3d3d63" d="m14.28087,36.77714l-5.02413,0c-0.20696,0 -0.37493,-0.16797 -0.37493,-0.37493c0,-0.20696 0.16797,-0.37493 0.37493,-0.37493l5.02413,0c0.20696,0 0.37493,0.16797 0.37493,0.37493c0,0.20696 -0.16797,0.37493 -0.37493,0.37493z"/>
   <path stroke="null" id="svg_15" target-y="459" target-x="510" target-width="36" target-height="10" node-id="98" fill-rule="nonzero" fill="#3d3d63" d="m27.77852,36.77714l-1.94966,0c-0.20696,0 -0.37493,-0.16797 -0.37493,-0.37493c0,-0.20696 0.16797,-0.37493 0.37493,-0.37493l1.94966,0c0.20696,0 0.37493,0.16797 0.37493,0.37493c0,0.20696 -0.16797,0.37493 -0.37493,0.37493z"/>
   <path stroke="null" id="svg_16" target-y="459" target-x="376" target-width="10" target-height="10" node-id="100" fill-rule="nonzero" fill="#3d3d63" d="m15.7806,36.77714c-0.09898,0 -0.19497,-0.03974 -0.26545,-0.10948c-0.06974,-0.07049 -0.10948,-0.16722 -0.10948,-0.26545c0,-0.09823 0.03974,-0.19497 0.10948,-0.26545c0.06974,-0.06974 0.16647,-0.10948 0.26545,-0.10948c0.09898,0 0.19572,0.03974 0.26545,0.10948c0.06974,0.07049 0.10948,0.16722 0.10948,0.26545c0,0.09823 -0.03974,0.19497 -0.10948,0.26545c-0.06974,0.06974 -0.16647,0.10948 -0.26545,0.10948z"/>
   <path stroke="null" id="svg_19" target-y="304.91" target-x="678.91" target-width="24.18005" target-height="23.98999" node-id="106" fill-rule="nonzero" fill="#ffffff" d="m39.02657,26.27147c-0.03974,0 -0.07799,-0.01575 -0.10573,-0.04424l-0.74237,-0.74237c-0.05849,-0.05849 -0.05849,-0.15297 0,-0.21146l0.74237,-0.74237c0.05849,-0.05849 0.15297,-0.05849 0.21146,0l0.74237,0.74237c0.05849,0.05849 0.05849,0.15297 0,0.21146l-0.74237,0.74237c-0.02775,0.0285 -0.06599,0.04424 -0.10573,0.04424zm-0.53016,-0.89234l0.53016,0.53016l0.53016,-0.53016l-0.53016,-0.53016l-0.53016,0.53016z"/>
   <path stroke="null" id="svg_20" target-y="43.91" target-x="531.91" target-width="24.18005" target-height="23.99" node-id="108" fill-rule="nonzero" fill="#ffffff" d="m28.00348,6.69987c-0.03824,0 -0.07649,-0.015 -0.10573,-0.04424l-0.74237,-0.74237c-0.05849,-0.05849 -0.05849,-0.15297 0,-0.21146l0.74237,-0.74237c0.05849,-0.05849 0.15297,-0.05849 0.21146,0l0.74237,0.74237c0.05849,0.05849 0.05849,0.15297 0,0.21146l-0.74237,0.74237c-0.02924,0.02924 -0.06749,0.04424 -0.10573,0.04424zm-0.53016,-0.89234l0.53016,0.53016l0.53016,-0.53016l-0.53016,-0.53016l-0.53016,0.53016z"/>
   <path stroke="null" id="svg_23" target-y="100" target-x="194" target-width="27" target-height="27" node-id="117" group-id="5" fill="none" d="m3.78269,10.11928l-0.01725,0.18447l-0.04574,0.16947l-0.07499,0.15672l-0.10048,0.14248l-0.12073,0.12073l-0.14248,0.10048l-0.15672,0.07499l-0.16947,0.04574l-0.18447,0.01725l-0.18447,-0.01725l-0.16947,-0.04574l-0.15672,-0.07499l-0.14248,-0.10048l-0.12073,-0.12073l-0.10048,-0.14248l-0.07499,-0.15672l-0.04574,-0.16947l-0.01725,-0.18447l0.01725,-0.18447l0.04574,-0.16947l0.07499,-0.15672l0.10048,-0.14248l0.12073,-0.12073l0.14248,-0.10048l0.15672,-0.07499l0.16947,-0.04574l0.18447,-0.01725l0.18447,0.01725l0.16947,0.04574l0.15672,0.07499l0.14248,0.10048l0.12073,0.12073l0.10048,0.14248l0.07499,0.15672l0.04574,0.16947l0.01725,0.18447z"/>
   <path stroke="null" id="svg_24" target-y="100" target-x="194" target-width="27" target-height="27" node-id="119" group-id="5" fill-rule="nonzero" fill="#ffffff" d="m2.77037,11.1316l-0.18447,-0.01725l-0.16947,-0.04649l-0.15672,-0.07499l-0.14173,-0.10048l-0.12073,-0.12073l-0.10048,-0.14173l-0.07499,-0.15672l-0.04649,-0.16947l-0.01725,-0.18447l0.01725,-0.18447l0.04649,-0.16947l0.07499,-0.15672l0.10048,-0.14173l0.12073,-0.12073l0.14173,-0.10048l0.15672,-0.07499l0.16947,-0.04649l0.18447,-0.01725l0.18447,0.01725l0.16947,0.04649l0.15672,0.07499l0.14173,0.10048l0.12073,0.12073l0.10048,0.14173l0.07499,0.15672l0.04649,0.16947l0.01725,0.18447l-0.01725,0.18447l-0.04649,0.16947l-0.07499,0.15672l-0.10048,0.14173l-0.12073,0.12073l-0.14173,0.10048l-0.15672,0.07499l-0.16947,0.04649l-0.18447,0.01725zm0,-1.7247l-0.12973,0.012l-0.11923,0.03299l-0.11023,0.05249l-0.14397,0.11173l-0.11173,0.14397l-0.05249,0.11023l-0.03299,0.11923l-0.012,0.12973l0.012,0.12973l0.03299,0.11923l0.05249,0.11023l0.11173,0.14397l0.14397,0.11173l0.11023,0.05249l0.11923,0.03299l0.12973,0.012l0.12973,-0.012l0.11923,-0.03299l0.11023,-0.05249l0.14397,-0.11173l0.11173,-0.14397l0.05249,-0.11023l0.03299,-0.11923l0.012,-0.12973l-0.012,-0.12973l-0.03299,-0.11923l-0.05249,-0.11023l-0.11173,-0.14397l-0.14397,-0.11173l-0.11023,-0.05249l-0.11923,-0.03299l-0.12973,-0.012z"/>
   <path stroke="null" id="svg_25" target-y="89" target-x="438" target-width="19" target-height="19" node-id="123" group-id="6" fill="none" d="m21.47961,8.99447l-0.012,0.12973l-0.03224,0.11923l-0.05324,0.11023l-0.11098,0.14472l-0.14472,0.11098l-0.11023,0.05324l-0.11923,0.03224l-0.12973,0.012l-0.12973,-0.012l-0.11923,-0.03224l-0.11023,-0.05324l-0.14472,-0.11098l-0.11098,-0.14472l-0.05324,-0.11023l-0.03224,-0.11923l-0.012,-0.12973l0.012,-0.12973l0.03224,-0.11923l0.05324,-0.11023l0.11098,-0.14472l0.14472,-0.11098l0.11023,-0.05324l0.11923,-0.03224l0.12973,-0.012l0.12973,0.012l0.11923,0.03224l0.11023,0.05324l0.14472,0.11098l0.11098,0.14472l0.05324,0.11023l0.03224,0.11923l0.012,0.12973z"/>
   <path stroke="null" id="svg_26" target-y="89" target-x="438" target-width="19" target-height="19" node-id="125" group-id="6" fill-rule="nonzero" fill="#ffffff" d="m20.76724,9.70685l-0.12973,-0.012l-0.11923,-0.03299l-0.11023,-0.05249l-0.14397,-0.11173l-0.11173,-0.14397l-0.05249,-0.11023l-0.03299,-0.11923l-0.012,-0.12973l0.012,-0.12973l0.03299,-0.11923l0.05249,-0.11023l0.11173,-0.14397l0.14397,-0.11173l0.11023,-0.05249l0.11923,-0.03299l0.12973,-0.012l0.12973,0.012l0.11923,0.03299l0.11023,0.05249l0.14397,0.11173l0.11173,0.14397l0.05249,0.11023l0.03299,0.11923l0.012,0.12973l-0.012,0.12973l-0.03299,0.11923l-0.05249,0.11023l-0.11173,0.14397l-0.14397,0.11173l-0.11023,0.05249l-0.11923,0.03299l-0.12973,0.012zm0,-1.1248l-0.11173,0.01575l-0.09598,0.04049l-0.08399,0.06449l-0.06449,0.08399l-0.04049,0.09598l-0.01575,0.11173l0.01575,0.11173l0.04049,0.09598l0.06449,0.08399l0.08399,0.06449l0.09598,0.04049l0.11173,0.01575l0.11173,-0.01575l0.09598,-0.04049l0.08399,-0.06449l0.06449,-0.08399l0.04049,-0.09598l0.01575,-0.11173l-0.01575,-0.11173l-0.04049,-0.09598l-0.06449,-0.08399l-0.08399,-0.06449l-0.09598,-0.04049l-0.11173,-0.01575z"/>
   <path stroke="null" id="svg_29" target-y="28" target-x="359" target-width="18" target-height="18" node-id="135" group-id="8" fill="none" d="m15.48066,4.38277l-0.02475,0.18072l-0.06749,0.15972l-0.10573,0.13648l-0.13648,0.10573l-0.15972,0.06749l-0.18072,0.02475l-0.18072,-0.02475l-0.15972,-0.06749l-0.13648,-0.10573l-0.10573,-0.13648l-0.06749,-0.15972l-0.02475,-0.18072l0.02475,-0.18072l0.06749,-0.15972l0.10573,-0.13648l0.13648,-0.10573l0.15972,-0.06749l0.18072,-0.02475l0.18072,0.02475l0.15972,0.06749l0.13648,0.10573l0.10573,0.13648l0.06749,0.15972l0.02475,0.18072z"/>
   <path stroke="null" id="svg_30" target-y="28" target-x="359" target-width="18" target-height="18" node-id="137" group-id="8" fill-rule="nonzero" fill="#b9edb1" d="m14.80577,5.05766l-0.18072,-0.02475l-0.15972,-0.06749l-0.13648,-0.10573l-0.10573,-0.13648l-0.06749,-0.15972l-0.02475,-0.18072l0.02475,-0.18072l0.06749,-0.15972l0.10573,-0.13648l0.13648,-0.10573l0.15972,-0.06749l0.18072,-0.02475l0.18072,0.02475l0.15972,0.06749l0.13648,0.10573l0.10573,0.13648l0.06749,0.15972l0.02475,0.18072l-0.02475,0.18072l-0.06749,0.15972l-0.10573,0.13648l-0.13648,0.10573l-0.15972,0.06749l-0.18072,0.02475zm0,-1.04982l-0.10198,0.01425l-0.08698,0.03674l-0.07574,0.05924l-0.05924,0.07574l-0.03674,0.08698l-0.01425,0.10198l0.01425,0.10198l0.03674,0.08698l0.05924,0.07574l0.07574,0.05924l0.08698,0.03674l0.10198,0.01425l0.10198,-0.01425l0.08698,-0.03674l0.07574,-0.05924l0.05924,-0.07574l0.03674,-0.08698l0.01425,-0.10198l-0.01425,-0.10198l-0.03674,-0.08698l-0.05924,-0.07574l-0.07574,-0.05924l-0.08698,-0.03674l-0.10198,-0.01425z"/>
   <path stroke="null" id="svg_31" target-y="185" target-x="692" target-width="30" target-height="30" node-id="141" group-id="9" fill="none" d="m41.35116,16.60565l-0.01875,0.20546l-0.05174,0.18822l-0.08324,0.17397l-0.11173,0.15822l-0.13348,0.13348l-0.15822,0.11173l-0.17397,0.08324l-0.18822,0.05174l-0.20546,0.01875l-0.20546,-0.01875l-0.18822,-0.05174l-0.17397,-0.08324l-0.15822,-0.11173l-0.13348,-0.13348l-0.11173,-0.15822l-0.08324,-0.17397l-0.05174,-0.18822l-0.01875,-0.20546l0.01875,-0.20546l0.05174,-0.18822l0.08324,-0.17397l0.11173,-0.15822l0.13348,-0.13348l0.15822,-0.11173l0.17397,-0.08324l0.18822,-0.05174l0.20546,-0.01875l0.20546,0.01875l0.18822,0.05174l0.17397,0.08324l0.15822,0.11173l0.13348,0.13348l0.11173,0.15822l0.08324,0.17397l0.05174,0.18822l0.01875,0.20546z"/>
   <path stroke="null" id="svg_33" target-y="202" target-x="392" target-width="128" target-height="20" node-id="146" fill-rule="nonzero" fill="#3d3d63" d="m25.45392,18.25536l-8.09859,0c-0.41393,0 -0.74987,-0.33594 -0.74987,-0.74987c0,-0.41393 0.33594,-0.74987 0.74987,-0.74987l8.09859,0c0.41393,0 0.74987,0.33594 0.74987,0.74987c0,0.41393 -0.33594,0.74987 -0.74987,0.74987z"/>
   <path stroke="null" id="svg_34" target-y="168" target-x="421" target-width="70" target-height="20" node-id="148" fill-rule="nonzero" fill="#3d3d63" d="m23.2793,15.7058l-3.74935,0c-0.41393,0 -0.74987,-0.33594 -0.74987,-0.74987c0,-0.41393 0.33594,-0.74987 0.74987,-0.74987l3.74935,0c0.41393,0 0.74987,0.33594 0.74987,0.74987c0,0.41393 -0.33594,0.74987 -0.74987,0.74987z"/>
   <path stroke="null" id="svg_35" target-y="236" target-x="392" target-width="128" target-height="20" node-id="150" fill-rule="nonzero" fill="#3d3d63" d="m25.45392,20.80492l-8.09859,0c-0.41393,0 -0.74987,-0.33594 -0.74987,-0.74987c0,-0.41393 0.33594,-0.74987 0.74987,-0.74987l8.09859,0c0.41393,0 0.74987,0.33594 0.74987,0.74987c0,0.41393 -0.33594,0.74987 -0.74987,0.74987z"/>
   <path stroke="null" target-y="279.4" target-x="396" target-width="242" target-height="147.6" node-id="50" id="联合_1_1_" group-id="10" fill-rule="nonzero" fill="#96ddff" d="m17.43032,33.62769c-0.2902,0 -0.52491,-0.23546 -0.52491,-0.52491l0,-7.52644c0,-0.2902 0.23471,-0.52491 0.52491,-0.52491l9.27214,0l1.40001,-2.49182l6.94979,0l0,10.54317c0,0.28945 -0.23471,0.52491 -0.52491,0.52491l-17.09703,0z"/>
   <path stroke="null" id="svg_36" target-y="269.4" target-x="386" target-width="262" target-height="167.6" node-id="155" group-id="10" fill-rule="nonzero" fill="#3d3d63" d="m34.52735,34.37756l-17.09703,0c-0.70263,0 -1.27478,-0.57215 -1.27478,-1.27478l0,-7.52644c0,-0.70263 0.57215,-1.27478 1.27478,-1.27478l8.83272,0l1.18629,-2.10938c0.13273,-0.23621 0.38243,-0.38243 0.65314,-0.38243l6.94979,0c0.41393,0 0.74987,0.33519 0.74987,0.74987l0,10.54317c0,0.70263 -0.57215,1.27478 -1.27478,1.27478zm-16.87207,-1.49974l16.64711,0l0,-9.56834l-5.76125,0l-1.18554,2.10938c-0.13273,0.23621 -0.38243,0.38243 -0.65389,0.38243l-9.04643,0l0,7.07652z"/>
   <path stroke="null" id="svg_37" target-y="370" target-x="559" target-width="55" target-height="20" node-id="158" fill-rule="nonzero" fill="#3d3d63" d="m32.5027,30.85317l-2.62454,0c-0.41393,0 -0.74987,-0.33594 -0.74987,-0.74987c0,-0.41393 0.33594,-0.74987 0.74987,-0.74987l2.62454,0c0.41393,0 0.74987,0.33594 0.74987,0.74987c0,0.41393 -0.33594,0.74987 -0.74987,0.74987z"/>
   <path stroke="null" target-y="387.56" target-x="406" target-width="222" target-height="29.44" node-id="53" id="路径_35" fill-rule="nonzero" fill="#69baf9" d="m17.65528,30.6702l9.13416,0.70788l7.51294,0l0,1.49974l-16.64711,0l0,-2.20762z"/>
   <path stroke="null" id="svg_38" target-y="362" target-x="447" target-width="8" target-height="55" node-id="161" fill-rule="nonzero" fill="#4da6ff" d="m20.72974,28.75354l0.5999,0l0,4.12428l-0.5999,0l0,-4.12428z"/>
   <path stroke="null" id="svg_39" target-y="382.5" target-x="425" target-width="8" target-height="34.5" node-id="163" fill-rule="nonzero" fill="#4da6ff" d="m19.08003,30.29077l0.5999,0l0,2.58705l-0.5999,0l0,-2.58705z"/>
   <path stroke="null" id="svg_40" target-y="393" target-x="469" target-width="8" target-height="24" node-id="165" fill-rule="nonzero" fill="#4da6ff" d="m22.37946,31.07813l0.5999,0l0,1.79969l-0.5999,0l0,-1.79969z"/>
   <path stroke="null" id="svg_41" target-y="398" target-x="491" target-width="8" target-height="19" node-id="167" fill-rule="nonzero" fill="#4da6ff" d="m24.02917,31.45307l0.5999,0l0,1.42475l-0.5999,0l0,-1.42475z"/>
   <path stroke="null" id="svg_42" target-y="402" target-x="513" target-width="8" target-height="15" node-id="169" fill-rule="nonzero" fill="#4da6ff" d="m25.67888,31.75302l0.5999,0l0,1.1248l-0.5999,0l0,-1.1248z"/>
  </g>
 </g>
</svg>