<?xml version="1.0" standalone="no"?><!DOCTYPE svg PUBLIC "-//W3C//DTD SVG 1.1//EN" "http://www.w3.org/Graphics/SVG/1.1/DTD/svg11.dtd"><svg t="1707202067434" class="icon" viewBox="0 0 1024 1024" version="1.1" xmlns="http://www.w3.org/2000/svg" p-id="19151" xmlns:xlink="http://www.w3.org/1999/xlink" width="200" height="200"><path d="M732.7 452.8c0 3.5-1.4 5.9-4.2 7.3l-217.3 117h-1.1c-0.7 0.7-1.8 1.1-3.2 1.1s-2.5-0.4-3.2-1.1h-1l-217.3-117c-2.8-1.4-4.2-3.8-4.2-7.3V201c0-0.7 0.4-1.4 1.1-2.1v-1.1l2.1-2.1 1.1-1.1 217.3-117c2.8-0.7 5.6-0.7 8.4 0l217.3 117 1.1 1.1 2.1 2.1v1.1l1 2.1v251.8zM298 447.6l200.6 108.7v-232L298 215.6v232z m9.4-245.5L507 309.7l199.5-107.6L507 94.4 307.4 202.1z" p-id="19152"></path><path d="M514.2 819.4c0 3.5-1.4 5.9-4.2 7.3l-217.3 117h-1.1c-0.7 0.7-1.8 1.1-3.2 1.1-1.4 0-2.5-0.4-3.2-1.1h-1L67 826.7c-2.8-1.4-4.2-3.8-4.2-7.3V567.5c0-0.7 0.4-1.4 1.1-2.1v-1.1l2.1-2.1 1.1-1.1 217.3-117c2.8-0.7 5.6-0.7 8.4 0l217.3 117 1.1 1.1 2.1 2.1v1.1l1 2.1v251.9z m-434.7-5.2l200.6 108.7v-232L79.5 582.2v232z m9.4-245.6l199.5 107.6L488 568.6 288.5 461 88.9 568.6z" p-id="19153"></path><path d="M958.4 819.4c0 3.5-1.4 5.9-4.2 7.3l-217.3 117h-1.1c-0.7 0.7-1.8 1.1-3.2 1.1-1.4 0-2.5-0.4-3.2-1.1h-1l-217.3-117c-2.8-1.4-4.2-3.8-4.2-7.3V567.5c0-0.7 0.4-1.4 1.1-2.1v-1.1l2.1-2.1 1.1-1.1 217.3-117c2.8-0.7 5.6-0.7 8.4 0l217.3 117 1.1 1.1 2.1 2.1v1.1l1 2.1v251.9z m-434.7-5.2l200.6 108.7v-232L523.7 582.2v232z m9.4-245.6l199.5 107.6 199.5-107.6L732.7 461 533.1 568.6z" p-id="19154"></path></svg>