<?xml version="1.0" standalone="no"?><!DOCTYPE svg PUBLIC "-//W3C//DTD SVG 1.1//EN" "http://www.w3.org/Graphics/SVG/1.1/DTD/svg11.dtd"><svg t="1707138261307" class="icon" viewBox="0 0 1024 1024" version="1.1" xmlns="http://www.w3.org/2000/svg" p-id="4656" xmlns:xlink="http://www.w3.org/1999/xlink" width="200" height="200"><path d="M959.728 148.539c0-45.213-36.694-81.864-81.957-81.864H146.293c-45.264 0-81.959 36.651-81.959 81.864 0 2.285 0.118 4.541 0.302 6.78h-0.023v802.617h894.836V155.318h-0.024c0.184-2.238 0.303-4.494 0.303-6.779z m-376.262-7.158c28.257 0 51.165 22.908 51.165 51.165 0 28.258-22.908 51.166-51.165 51.166-28.258 0-51.166-22.908-51.166-51.166 0-28.257 22.908-51.165 51.166-51.165z m-178.056 0c28.258 0 51.166 22.908 51.166 51.165 0 28.258-22.908 51.166-51.166 51.166-28.257 0-51.165-22.908-51.165-51.166 0-28.257 22.908-51.165 51.165-51.165z m-180.108 0c28.258 0 51.166 22.908 51.166 51.165 0 28.258-22.908 51.166-51.166 51.166-28.257 0-51.165-22.908-51.165-51.166 0-28.257 22.908-51.165 51.165-51.165zM906.31 905.803H118.364V312.285H906.31v593.518z" p-id="4657"></path></svg>