<svg width="200" height="200" viewBox="0 0 1024 1024" xmlns="http://www.w3.org/2000/svg" t="1707035288022" class="icon" version="1.1" p-id="15174">
 <g>
  <title>Layer 1</title>
  <g stroke="null" id="svg_4">
   <path stroke="null" d="m594.62803,636.39603l166.164,0l5.902,-0.454l0.908,0c19.068,-3.632 32.688,-20.43 32.688,-39.952c0,-22.246 -17.706,-40.86 -39.952,-40.86l-165.71001,0l-6.356,0.454l-0.908,0c-19.068,3.632 -32.688,20.43 -32.688,39.952c0,10.896 4.086,20.884 11.35,28.602c7.718,7.718 17.706,11.804 28.602,12.258l0.00001,0zm0,-331.42002l166.164,0l5.902,-0.454l0.908,0c19.068,-3.632 32.688,-20.43 32.688,-39.952c0,-22.246 -17.706,-40.86 -39.952,-40.86l-165.71001,0l-6.356,0.454l-0.908,0c-19.068,3.632 -32.688,20.43 -32.688,39.952c0,22.246 17.706,40.86 39.952,40.86l0.00001,0zm0,165.71001l166.164,0l5.902,-0.454l0.908,0c19.068,-3.632 32.688,-20.43 32.688,-39.952c0,-22.246 -17.706,-40.86 -39.952,-40.86l-165.71001,0l-6.356,0.454l-0.908,0c-19.068,3.632 -32.688,20.43 -32.688,39.952c0,10.896 4.086,20.884 11.35,28.602c7.718,7.718 17.706,12.258 28.602,12.258l0.00001,0z" p-id="15175" id="svg_1"/>
   <path stroke="null" d="m863.85004,58l-703.70003,0c-56.296,0 -102.15,45.854 -102.15,102.15l0,703.70003c0,56.296 45.854,102.15 102.15,102.15l703.70003,0c56.296,0 102.15,-45.854 102.15,-102.15l0,-703.70003c0,-56.296 -45.854,-102.15 -102.15,-102.15zm-725.94604,102.15c0,-12.258 9.988,-22.246 22.246,-22.246l703.70003,0c12.258,0 22.246,9.988 22.246,22.246l0,703.70003c0,12.258 -9.988,22.246 -22.246,22.246l-703.70003,0c-12.258,0 -22.246,-9.988 -22.246,-22.246l0,-703.70003z" p-id="15176" id="svg_2"/>
   <path stroke="null" d="m263.66201,800.29003l165.71001,0c22.246,0 39.952,-17.706 39.952,-39.952l0,-165.71001c0,-21.792 -18.16,-39.952 -39.952,-39.952l-165.71001,0c-22.246,0 -39.952,17.706 -39.952,39.952l0,165.71001c0,22.246 17.706,39.952 39.952,39.952zm135.74601,-175.698l0,106.236l-106.236,0l0,-106.236l106.236,0zm-135.74601,-155.268l165.71001,0c22.246,0 39.952,-17.706 39.952,-39.952l0,-165.71001c0,-22.246 -18.16,-39.952 -39.952,-39.952l-165.71001,0c-22.246,0 -39.952,17.706 -39.952,39.952l0,165.71001c0,21.792 17.706,39.952 39.952,39.952zm135.74601,-176.15201l0,106.236l-106.236,0l0,-106.236l106.236,0zm195.22001,508.93403l166.164,0l5.902,-0.454l0.908,0c19.068,-3.632 32.688,-20.43 32.688,-39.952c0,-22.246 -17.706,-40.86 -39.952,-40.86l-165.71001,0l-6.356,0.454l-0.908,0c-19.068,3.632 -32.688,20.43 -32.688,39.952c0,22.246 17.706,40.406 39.952,40.86l0.00001,0z" p-id="15177" id="svg_3"/>
  </g>
 </g>

</svg>