<?xml version="1.0" standalone="no"?><!DOCTYPE svg PUBLIC "-//W3C//DTD SVG 1.1//EN" "http://www.w3.org/Graphics/SVG/1.1/DTD/svg11.dtd"><svg t="1701678373587" class="icon" viewBox="0 0 1024 1024" version="1.1" xmlns="http://www.w3.org/2000/svg" p-id="1769" xmlns:xlink="http://www.w3.org/1999/xlink" width="200" height="200"><path d="M716.8 768l0-51.2 204.8 0 0 51.2L716.8 768zM102.4 768l0-51.2 204.8 0 0 51.2L102.4 768zM307.2 870.4l409.6 0 0-256L307.2 614.4 307.2 870.4z" p-id="1770" fill="white"></path><path d="M102.4 332.8l102.4 0 0 51.2-102.4 0 0-51.2Z" p-id="1771" fill="white"></path><path d="M819.2 332.8l102.4 0 0 51.2-102.4 0 0-51.2Z" p-id="1772" fill="white"></path><path d="M768 256l0 204.8L256 460.8 256 256 768 256M819.2 204.8 204.8 204.8l0 307.2 614.4 0L819.2 204.8 819.2 204.8z" p-id="1773" fill="white"></path></svg>