<?xml version="1.0" standalone="no"?><!DOCTYPE svg PUBLIC "-//W3C//DTD SVG 1.1//EN" "http://www.w3.org/Graphics/SVG/1.1/DTD/svg11.dtd"><svg t="1691024467055" class="icon" viewBox="0 0 1365 1024" version="1.1" xmlns="http://www.w3.org/2000/svg" p-id="7849" xmlns:xlink="http://www.w3.org/1999/xlink" width="266.6015625" height="200"><path stroke="null" id="svg_1" class="selected" data-spm-anchor-id="a313x.search_index.0.i3.2ca93a81kEagYP" p-id="7850" fill="#0e0000" d="m1018.8503,136.42749c22.39359,0 40.54718,18.15359 40.54718,40.54718l0,312.86411c0,22.39359 -18.15359,40.54718 -40.54718,40.54718c-22.39359,0 -40.54719,-18.15359 -40.54719,-40.54718l0,-312.86411l40.54719,40.54719l-318.12124,0c-22.39359,0 -40.54719,-18.1536 -40.54719,-40.54719c0,-22.39359 18.1536,-40.54718 40.54719,-40.54718l318.12124,0zm-672.70057,751.14498c-22.39359,0 -40.54719,-18.15359 -40.54719,-40.54718l0,-312.86411c0,-22.39359 18.1536,-40.54718 40.54719,-40.54718c22.39359,0 40.54718,18.15359 40.54718,40.54718l0,312.86411l-40.54718,-40.54718l318.12124,0c22.39359,0 40.54718,18.15359 40.54718,40.54718c0,22.39359 -18.15359,40.54718 -40.54718,40.54718l-318.12124,0z"/></svg>