<svg width="200" height="200" viewBox="0 0 1024 1024" xmlns="http://www.w3.org/2000/svg" p-id="7452" version="1.1" class="icon" t="1707185773625">

 <g>
  <g stroke="null" id="svg_3">
   <path stroke="null" id="svg_1" p-id="7453" d="m512.94395,777.85638c-4.66415,0 -9.43934,-0.99946 -13.77034,-2.99838l-379.79482,-172.57344c-23.43179,-8.77304 -46.08621,-19.87815 -67.29698,-33.20428c-15.54716,-9.7725 -20.32235,-30.31695 -10.54986,-45.86411c9.7725,-15.54716 30.31695,-20.32235 45.86411,-10.54986c17.65713,11.10511 36.53582,20.32235 56.19187,27.54068c0.77736,0.33315 1.55472,0.55526 2.22102,0.88841l367.13499,166.79878l369.57812,-167.35403c11.10511,-5.2194 22.21022,-10.54986 33.09323,-16.10241c0.11105,-0.11105 0.2221,-0.11105 0.4442,-0.2221l23.65389,-11.54932c16.54662,-8.10673 36.53582,-1.22156 44.5315,15.32505c8.10673,16.54662 1.22156,36.53582 -15.32505,44.5315l-23.54284,11.54932c-11.43827,5.77466 -23.09863,11.43827 -34.759,16.87977c-0.11105,0.11105 -0.2221,0.11105 -0.33315,0.2221l-383.57056,173.795c-4.33099,1.88787 -8.99514,2.88733 -13.77034,2.88733z"/>
   <path stroke="null" id="svg_2" p-id="7454" d="m512.94395,974.63896c-4.66415,0 -9.43934,-0.99946 -13.77034,-2.99838l-380.79428,-172.57344c-22.87653,-8.88409 -44.9757,-19.7671 -65.96436,-32.53798c-15.76926,-9.5504 -20.76656,-30.09485 -11.21616,-45.75306s30.09485,-20.76656 45.75306,-11.21616c17.76818,10.77196 36.75792,20.10025 56.19187,27.65173c0.55526,0.2221 1.22156,0.4442 1.77682,0.77736l367.91235,166.79878l369.46707,-168.02034c11.32721,-5.33045 22.21022,-10.66091 33.20428,-16.21346c0.11105,0 0.2221,-0.11105 0.33315,-0.11105l23.76494,-11.54932c16.54662,-7.99568 36.53582,-1.11051 44.5315,15.43611c7.99568,16.54662 1.11051,36.53582 -15.43611,44.5315l-23.54284,11.43827c-11.43827,5.77466 -22.76548,11.21616 -34.5369,16.87977c-0.11105,0.11105 -0.33315,0.11105 -0.4442,0.2221l-383.45951,174.35025c-4.33099,1.88787 -8.99514,2.88733 -13.77034,2.88733zm0.4442,-858.64723c7.21832,0 14.32559,2.10997 20.32235,6.10781l2.99838,1.99892l3.22048,1.66577l358.13985,186.01062c3.33153,2.33207 5.2194,6.32991 4.9973,10.4388l-0.2221,2.77628l0,2.77628c0,2.44312 -1.22156,4.7752 -3.22048,6.10781l-359.58352,159.13625l-1.33261,0.66631l-1.33261,0.66631c-7.99568,3.99784 -16.54662,6.32991 -25.43071,7.10727c-7.77358,-0.77736 -15.43611,-2.99838 -22.43233,-6.66307l-1.99892,-0.99946l-1.99892,-0.88841l-358.58406,-158.58099c-2.44312,-1.66577 -3.99784,-4.33099 -4.10889,-7.32937l0,-1.11051l-0.11105,-1.11051c-0.2221,-4.7752 1.66577,-9.32829 5.2194,-12.43773l359.91667,-187.12113l2.77628,-1.44366l2.66523,-1.77682c6.10781,-3.99784 12.99298,-5.99676 20.10025,-5.99676m0,-66.63067c-19.545,0 -39.08999,5.55256 -56.19187,16.65767l-364.35871,189.34215c-24.32019,16.10241 -38.31264,43.86519 -36.64687,73.07163c0.66631,27.76278 16.43557,52.97138 41.19996,65.63121l361.02718,159.69151c16.65767,8.77304 34.9811,13.65929 53.74874,14.43665l0,-0.11105c18.98974,-0.88841 37.64633,-5.66361 54.7482,-14.21454l362.24874,-160.02466c24.9865,-12.77088 40.75576,-38.64579 40.42261,-66.74172c2.10997,-29.7617 -12.77088,-58.19079 -38.64579,-73.29374l-360.24982,-187.12113c-17.32397,-11.54932 -37.31318,-17.32397 -57.30238,-17.32397z"/>
  </g>
 </g>
</svg>