<svg width="200" height="200" viewBox="0 0 1024 1024" xmlns="http://www.w3.org/2000/svg" p-id="20186" version="1.1" class="icon" t="1707202126024">

 <g>
  <g stroke="null" id="svg_4">
   <path stroke="null" id="svg_1" p-id="20187" d="m715.64932,633.78537c-51.36635,0 -93.16101,41.78757 -93.16101,93.16101s41.79348,93.17402 93.16219,93.17402s93.15982,-41.80057 93.15982,-93.17402s-41.79348,-93.16219 -93.16101,-93.16219l0,0.00118zm0,121.75424c-15.75963,0 -28.58141,-12.82769 -28.58141,-28.59323c0,-15.75372 12.82059,-28.58259 28.58141,-28.58259s28.58259,12.82769 28.58259,28.58259c0,15.76555 -12.82178,28.59323 -28.58259,28.59323z"/>
   <path stroke="null" id="svg_2" p-id="20188" d="m942.96412,682.15827c-2.50735,-13.09735 -10.46345,-21.51707 -20.12502,-21.33139l-2.01061,0c-33.28269,0 -60.37506,-26.78132 -60.37506,-59.66189c0,-10.83837 5.20157,-22.72699 5.26425,-22.82042c5.06674,-11.68756 1.2111,-25.32895 -9.22633,-32.63101l-0.58662,-0.40212l-58.05221,-31.89182l-0.62329,-0.27912a30.76824,30.76824 0 0 0 -32.90895,6.4718c-7.06079,7.24647 -29.41404,26.00783 -47.4634,26.00783c-18.20666,0 -40.71366,-19.13627 -47.80284,-26.50338a30.65943,30.65943 0 0 0 -32.88293,-6.75092l-0.65049,0.27912l-60.09712,32.63338l-0.58662,0.40449c-10.44807,7.29378 -14.31791,20.93754 -9.25827,32.63338c0.06268,0.12182 5.26661,12.01162 5.26661,22.84999c0,32.91131 -27.09356,59.66189 -60.37624,59.66189l-2.01061,0c-9.72189,-0.18569 -17.64606,8.20329 -20.15695,21.33139c-0.21762,1.02186 -4.86094,25.63527 -4.86094,44.9868c0,19.38109 4.64333,43.96494 4.86094,44.98798c2.47542,12.94123 10.24701,21.33257 19.7844,21.33257l0.37137,-0.03075l2.01179,0c33.28269,0 60.37624,26.80971 60.37624,59.69145c0,10.83719 -5.20393,22.72462 -5.23232,22.81687c-5.07383,11.68637 -1.24776,25.32422 9.16128,32.66413l0.52631,0.40567l56.96885,31.48615l0.61974,0.27912a30.06926,30.06926 0 0 0 33.00593,-6.84317c6.68823,-7.21454 29.9368,-27.68018 48.54676,-27.68018c18.7306,0 41.64327,20.34264 48.85545,28.17455a29.97701,29.97701 0 0 0 21.95113,9.25945a27.28516,27.28516 0 0 0 10.96137,-2.16909l0.64931,-0.24719l59.04451,-32.26201l0.61856,-0.43524c10.43152,-7.29142 14.28716,-20.92098 9.22633,-32.60144c-0.06505,-0.123 -5.26661,-11.98087 -5.26661,-22.84999c0,-32.91131 27.09237,-59.69027 60.37624,-59.69027l2.01061,0c9.66157,0.21407 17.61649,-8.17609 20.12502,-21.30182c0.21762,-1.02186 4.86213,-25.60571 4.86213,-44.98798c0.00237,-19.35034 -4.64214,-43.96494 -4.8917,-44.9868zm-60.01078,52.53605c-50.42609,16.00564 -87.04166,63.0539 -87.04166,118.43792c0,4.99577 0.39029,9.87682 1.03369,14.50477l-6.98746,3.8107c-17.7596,-13.97492 -44.68876,-29.76648 -75.51495,-29.76648c-30.15914,0 -56.90972,15.48879 -74.67049,29.17395l-5.3979,-2.97689c0.6564,-4.71665 1.04788,-9.66039 1.04788,-14.74487c0,-55.39584 -36.62858,-102.45594 -87.06886,-118.43674c-0.20106,-2.70013 -0.32879,-5.2607 -0.32879,-7.54452c0,-2.29446 0.12655,-4.86804 0.32879,-7.58118c50.44028,-15.97962 87.06886,-63.0267 87.06886,-118.41072c0,-4.96975 -0.39029,-9.81296 -1.02186,-14.41725l8.65272,-4.70483c17.69691,13.39421 43.98268,28.16509 73.80002,28.16509c29.42586,0 55.42186,-14.3664 73.01825,-27.48385l7.07616,3.88521c-0.69425,4.98158 -1.07272,9.88747 -1.07272,14.55563c0,55.39584 36.62858,102.4311 87.08069,118.4119c0.20106,2.69895 0.32879,5.28436 0.32879,7.58118c-0.00355,2.28263 -0.1301,4.85621 -0.33116,7.54215l0,-0.00118zm-611.03965,-270.76999c-17.83529,0 -32.29039,14.45392 -32.29039,32.28803s14.4551,32.29039 32.29039,32.29039l245.40082,0c17.83529,0 32.28921,-14.4551 32.28921,-32.28921s-14.4551,-32.28921 -32.28921,-32.28921l-245.40082,0zm435.90964,-148.5332c0,-17.83529 -14.4551,-32.28921 -32.28921,-32.28921l-403.62043,0c-17.83529,0 -32.29039,14.4551 -32.29039,32.28921s14.4551,32.29039 32.29039,32.29039l403.62043,0c17.83529,0 32.28921,-14.4551 32.28921,-32.29039z"/>
   <path stroke="null" id="svg_3" p-id="20189" d="m140.72377,762.48922l0,-546.56531c0,-39.17141 31.86698,-71.0372 71.0372,-71.0372l523.91757,0c39.17141,0 71.0372,31.86698 71.0372,71.0372l0,180.93713l64.5796,0l0,-180.93713c0,-74.77694 -60.83868,-135.61562 -135.61562,-135.61562l-523.91875,0c-74.77694,0 -135.6168,60.83868 -135.6168,135.61562l0,546.5665c0,74.78285 60.83987,135.61562 135.6168,135.61562l181.67396,0l0,-64.5796l-181.67396,0c-39.17141,0 -71.0372,-31.87408 -71.0372,-71.0372z"/>
  </g>
 </g>
</svg>