<svg xmlns="http://www.w3.org/2000/svg" xml:space="preserve" viewBox="0 0 45 45" version="1.1">

 <g>
  <title>Layer 1</title>
  <g stroke="null" id="svg_50">
   <g stroke="null" id="组_766">
    <path stroke="null" d="m44.28733,37.22887c0,-12.03276 -9.75451,-21.78733 -21.78733,-21.78733c-12.03282,0 -21.78733,9.75451 -21.78733,21.78733" enable-background="new    " fill="#69BAF9" opacity="0.2" id="路径_1806"/>
    <path stroke="null" d="m38.36745,37.22887c0,-8.76696 -7.10703,-15.87399 -15.87393,-15.87399c-8.76696,0 -15.87399,7.10703 -15.87399,15.87399" enable-background="new    " fill="#69BAF9" opacity="0.5" id="路径_1807"/>
    <path stroke="null" d="m32.47091,37.22887c0.01403,-5.49521 -4.42936,-9.96129 -9.92464,-9.97526c-5.49521,-0.01403 -9.96129,4.42936 -9.97533,9.92464c0,0.01685 0,0.03371 0,0.05062" enable-background="new    " fill="#69BAF9" opacity="0.7" id="路径_1808"/>
   </g>
   <g stroke="null" id="组_764">
    <path stroke="null" id="svg_1" d="m38.84049,37.23849l-16.91722,0c-0.17693,0 -0.3204,-0.14341 -0.3204,-0.3204s0.14348,-0.3204 0.3204,-0.3204l16.91722,0c0.17699,0 0.3204,0.14341 0.3204,0.3204s-0.14341,0.3204 -0.3204,0.3204z" fill="#3D3D63"/>
    <path stroke="null" id="svg_2" d="m43.90284,37.23849l-3.71666,0c-0.17699,0 -0.3204,-0.14341 -0.3204,-0.3204s0.14341,-0.3204 0.3204,-0.3204l3.71666,0c0.17699,0 0.3204,0.14341 0.3204,0.3204s-0.14341,0.3204 -0.3204,0.3204z" fill="#3D3D63"/>
    <path stroke="null" id="svg_3" d="m18.5911,37.23849l-3.84482,0c-0.17693,0 -0.3204,-0.14341 -0.3204,-0.3204s0.14348,-0.3204 0.3204,-0.3204l3.84482,0c0.17693,0 0.3204,0.14341 0.3204,0.3204s-0.14348,0.3204 -0.3204,0.3204z" fill="#3D3D63"/>
    <path stroke="null" id="svg_4" d="m12.50346,37.23849l-11.40631,0c-0.17693,0 -0.3204,-0.14341 -0.3204,-0.3204s0.14348,-0.3204 0.3204,-0.3204l11.40631,0c0.17693,0 0.3204,0.14341 0.3204,0.3204s-0.14348,0.3204 -0.3204,0.3204z" fill="#3D3D63"/>
    <ellipse stroke="null" ry="0.25632" rx="0.3204" cy="36.91808" cx="20.06494" fill="#3D3D63" id="椭圆_336"/>
   </g>
   <g stroke="null" id="矩形_1367">
    <path stroke="null" id="svg_5" d="m9.748,10.96553l25.56807,0c1.34479,0 2.43505,1.0902 2.43505,2.43505l0,19.60859c0,1.34485 -1.09026,2.43505 -2.43505,2.43505l-25.56807,0c-1.34485,0 -2.43505,-1.0902 -2.43505,-2.43505l0,-19.60859c0,-1.34485 1.0902,-2.43505 2.43505,-2.43505z" fill="#E9E9E9"/>
    <path stroke="null" id="svg_6" d="m35.31607,35.44424l-25.56807,0c-1.34268,0 -2.43505,-1.09238 -2.43505,-2.43505l0,-19.60859c0,-1.34268 1.09238,-2.43505 2.43505,-2.43505l25.56807,0c1.34268,0 2.43505,1.09238 2.43505,2.43505l0,19.60859c0,1.34268 -1.09238,2.43505 -2.43505,2.43505zm-25.56807,-23.1971c-0.636,0 -1.15345,0.51745 -1.15345,1.15345l0,19.60859c0,0.636 0.51745,1.15345 1.15345,1.15345l25.56807,0c0.636,0 1.15345,-0.51745 1.15345,-1.15345l0,-19.60859c0,-0.636 -0.51745,-1.15345 -1.15345,-1.15345l-25.56807,0z" fill="#3D3D63"/>
   </g>
   <g stroke="null" id="矩形_1369">
    <path stroke="null" id="svg_7" d="m12.82386,13.97731l1.53793,0c1.02638,0 1.85833,0.83202 1.85833,1.85833l0,0c0,1.02631 -0.83196,1.85833 -1.85833,1.85833l-1.53793,0c-1.02638,0 -1.85833,-0.83202 -1.85833,-1.85833l0,0c0,-1.02631 0.83196,-1.85833 1.85833,-1.85833z" fill="#7AC1FA"/>
    <path stroke="null" id="svg_8" d="m14.36179,17.69397l-1.53793,0c-1.02471,0 -1.85833,-0.83362 -1.85833,-1.85833s0.83362,-1.85833 1.85833,-1.85833l1.53793,0c1.02471,0 1.85833,0.83362 1.85833,1.85833s-0.83362,1.85833 -1.85833,1.85833zm-1.53793,-2.69138c-0.45933,0 -0.83304,0.37372 -0.83304,0.83304s0.37372,0.83304 0.83304,0.83304l1.53793,0c0.45933,0 0.83304,-0.37372 0.83304,-0.83304s-0.37372,-0.83304 -0.83304,-0.83304l-1.53793,0z" fill="#3D3D63"/>
   </g>
   <g stroke="null" id="矩形_1370">
    <path stroke="null" id="svg_9" d="m30.63821,13.97731l1.53793,0c1.02638,0 1.85833,0.83202 1.85833,1.85833l0,0c0,1.02631 -0.83196,1.85833 -1.85833,1.85833l-1.53793,0c-1.02638,0 -1.85833,-0.83202 -1.85833,-1.85833l0,0c0,-1.02631 0.83196,-1.85833 1.85833,-1.85833z" fill="#7AC1FA"/>
    <path stroke="null" id="svg_10" d="m32.17614,17.69397l-1.53793,0c-1.02465,0 -1.85833,-0.83362 -1.85833,-1.85833s0.83369,-1.85833 1.85833,-1.85833l1.53793,0c1.02465,0 1.85833,0.83362 1.85833,1.85833s-0.83369,1.85833 -1.85833,1.85833zm-1.53793,-2.69138c-0.45933,0 -0.83304,0.37372 -0.83304,0.83304s0.37372,0.83304 0.83304,0.83304l1.53793,0c0.45933,0 0.83304,-0.37372 0.83304,-0.83304s-0.37372,-0.83304 -0.83304,-0.83304l-1.53793,0z" fill="#3D3D63"/>
   </g>
   <g stroke="null" id="矩形_1368">
    <path stroke="null" id="svg_11" d="m13.59283,7.76151l0,0c0.77858,0 1.40977,0.63119 1.40977,1.40977l0,5.76723c0,0.77858 -0.63119,1.40977 -1.40977,1.40977l0,0c-0.77858,0 -1.40977,-0.63119 -1.40977,-1.40977l0,-5.76723c0,-0.77858 0.63119,-1.40977 1.40977,-1.40977z" fill="#B2B2B2"/>
    <path stroke="null" id="svg_12" d="m13.59283,16.34828c-0.77736,0 -1.40977,-0.63241 -1.40977,-1.40977l0,-5.76723c0,-0.77736 0.63241,-1.40977 1.40977,-1.40977s1.40977,0.63241 1.40977,1.40977l0,5.76723c0,0.77736 -0.63241,1.40977 -1.40977,1.40977zm0,-7.56148c-0.21204,0 -0.38448,0.17244 -0.38448,0.38448l0,5.76723c0,0.21204 0.17244,0.38448 0.38448,0.38448s0.38448,-0.17244 0.38448,-0.38448l0,-5.76723c0,-0.21204 -0.17244,-0.38448 -0.38448,-0.38448z" fill="#3D3D63"/>
   </g>
   <g stroke="null" id="矩形_1371">
    <path stroke="null" id="svg_13" d="m31.40717,7.76151l0,0c0.77858,0 1.40977,0.63119 1.40977,1.40977l0,5.76723c0,0.77858 -0.63119,1.40977 -1.40977,1.40977l0,0c-0.77858,0 -1.40977,-0.63119 -1.40977,-1.40977l0,-5.76723c0,-0.77858 0.63119,-1.40977 1.40977,-1.40977z" fill="#B2B2B2"/>
    <path stroke="null" id="svg_14" d="m31.40717,16.34828c-0.77736,0 -1.40977,-0.63241 -1.40977,-1.40977l0,-5.76723c0,-0.77736 0.63241,-1.40977 1.40977,-1.40977s1.40977,0.63241 1.40977,1.40977l0,5.76723c0,0.77736 -0.63241,1.40977 -1.40977,1.40977zm0,-7.56148c-0.21204,0 -0.38448,0.17244 -0.38448,0.38448l0,5.76723c0,0.21204 0.17244,0.38448 0.38448,0.38448s0.38448,-0.17244 0.38448,-0.38448l0,-5.76723c0,-0.21204 -0.17244,-0.38448 -0.38448,-0.38448z" fill="#3D3D63"/>
   </g>
   <g stroke="null" id="组_1053">
    <path stroke="null" id="svg_15" d="m32.84898,20.80187l-20.63388,0c-0.35392,0 -0.6408,-0.28689 -0.6408,-0.6408s0.28689,-0.6408 0.6408,-0.6408l20.63388,0c0.35385,0 0.6408,0.28689 0.6408,0.6408s-0.28695,0.6408 -0.6408,0.6408z" fill="#3D3D63"/>
    <path stroke="null" id="svg_16" d="m14.32975,32.52858c-0.35392,0 -0.6408,-0.28695 -0.6408,-0.6408l0,-13.0724c0,-0.35392 0.28689,-0.6408 0.6408,-0.6408s0.6408,0.28689 0.6408,0.6408l0,13.0724c0,0.35385 -0.28689,0.6408 -0.6408,0.6408z" fill="#3D3D63"/>
    <path stroke="null" id="svg_17" d="m18.4309,32.52858c-0.35392,0 -0.6408,-0.28695 -0.6408,-0.6408l0,-13.0724c0,-0.35392 0.28689,-0.6408 0.6408,-0.6408s0.6408,0.28689 0.6408,0.6408l0,13.0724c0,0.35385 -0.28689,0.6408 -0.6408,0.6408z" fill="#3D3D63"/>
    <path stroke="null" id="svg_18" d="m22.53204,32.52858c-0.35392,0 -0.6408,-0.28695 -0.6408,-0.6408l0,-13.0724c0,-0.35392 0.28689,-0.6408 0.6408,-0.6408c0.35385,0 0.6408,0.28689 0.6408,0.6408l0,13.0724c0,0.35385 -0.28695,0.6408 -0.6408,0.6408z" fill="#3D3D63"/>
    <path stroke="null" id="svg_19" d="m26.63318,32.52858c-0.35385,0 -0.6408,-0.28695 -0.6408,-0.6408l0,-13.0724c0,-0.35392 0.28695,-0.6408 0.6408,-0.6408s0.6408,0.28689 0.6408,0.6408l0,13.0724c0,0.35385 -0.28695,0.6408 -0.6408,0.6408z" fill="#3D3D63"/>
    <path stroke="null" id="svg_20" d="m30.73433,32.52858c-0.35385,0 -0.6408,-0.28695 -0.6408,-0.6408l0,-13.0724c0,-0.35392 0.28695,-0.6408 0.6408,-0.6408s0.6408,0.28689 0.6408,0.6408l0,13.0724c0,0.35385 -0.28695,0.6408 -0.6408,0.6408z" fill="#3D3D63"/>
    <path stroke="null" id="svg_21" d="m32.84898,24.26221l-20.63388,0c-0.35392,0 -0.6408,-0.28695 -0.6408,-0.6408s0.28689,-0.6408 0.6408,-0.6408l20.63388,0c0.35385,0 0.6408,0.28695 0.6408,0.6408s-0.28695,0.6408 -0.6408,0.6408z" fill="#3D3D63"/>
    <path stroke="null" id="svg_22" d="m32.84898,27.72255l-20.63388,0c-0.35392,0 -0.6408,-0.28695 -0.6408,-0.6408s0.28689,-0.6408 0.6408,-0.6408l20.63388,0c0.35385,0 0.6408,0.28695 0.6408,0.6408s-0.28695,0.6408 -0.6408,0.6408z" fill="#3D3D63"/>
    <path stroke="null" id="svg_23" d="m32.84898,31.18289l-20.63388,0c-0.35392,0 -0.6408,-0.28695 -0.6408,-0.6408s0.28689,-0.6408 0.6408,-0.6408l20.63388,0c0.35385,0 0.6408,0.28695 0.6408,0.6408s-0.28695,0.6408 -0.6408,0.6408z" fill="#3D3D63"/>
   </g>
   <rect stroke="null" height="2.24281" width="2.88362" fill="#A4DA86" y="24.23017" x="23.1408" id="矩形_1373"/>
   <rect stroke="null" height="2.24281" width="2.88362" fill="#F6716F" y="20.76983" x="14.93851" id="矩形_1374"/>
   <rect stroke="null" height="2.24281" width="2.88362" fill="#FFD28E" y="20.76983" x="19.03966" id="矩形_1375"/>
   <rect stroke="null" height="2.24281" width="2.88362" fill="#F6716F" y="27.69051" x="27.24195" id="矩形_1376"/>
   <g stroke="null" id="组_1050">
    <g stroke="null" id="路径_1850">
     <path stroke="null" id="svg_24" d="m37.31513,30.73798c0.45971,0 0.83234,-0.37263 0.83234,-0.8324c0,-0.45971 -0.37263,-0.83234 -0.83234,-0.83234c-0.45978,-0.00006 -0.8324,0.37263 -0.8324,0.83228c0,0.00006 0,0.00013 0,0.00013c0.00006,0.45971 0.37269,0.83234 0.8324,0.83234z" fill="none"/>
     <path stroke="null" id="svg_25" d="m37.31506,30.22534c0.17635,0 0.31976,-0.14341 0.31976,-0.3197s-0.14341,-0.31976 -0.31976,-0.31976c-0.17629,0 -0.3197,0.14341 -0.3197,0.3197s0.14341,0.31976 0.3197,0.31976m0,0.51264c-0.45971,0 -0.83234,-0.37263 -0.83234,-0.8324c0,-0.45965 0.37263,-0.83234 0.83234,-0.83234s0.8324,0.37263 0.8324,0.83234c0.00006,0.45978 -0.37269,0.8324 -0.8324,0.8324z" fill="#8682F8"/>
    </g>
    <g stroke="null" id="路径_1851">
     <path stroke="null" id="svg_26" d="m6.83715,26.25235c0.61652,0 1.11628,-0.49976 1.11628,-1.11628s-0.49976,-1.11628 -1.11628,-1.11628c-0.61652,0 -1.11628,0.49976 -1.11628,1.11628s0.49976,1.11628 1.11628,1.11628z" fill="none"/>
     <path stroke="null" id="svg_27" d="m6.83715,25.73971c0.33283,0 0.60364,-0.27074 0.60364,-0.60364c0,-0.33277 -0.2708,-0.60364 -0.60364,-0.60364s-0.60364,0.2708 -0.60364,0.60364c0,0.3329 0.2708,0.60364 0.60364,0.60364m0,0.51264c-0.61652,0 -1.11628,-0.49976 -1.11628,-1.11628s0.49976,-1.11628 1.11628,-1.11628s1.11628,0.49976 1.11628,1.11628s-0.49976,1.11628 -1.11628,1.11628z" fill="#8682F8"/>
    </g>
    <g stroke="null" id="路径_1849">
     <path stroke="null" id="svg_28" d="m37.91287,13.52599c0.49996,0 0.90526,-0.40531 0.90526,-0.90526s-0.40531,-0.90526 -0.90526,-0.90526c-0.49996,0 -0.90526,0.40531 -0.90526,0.90526s0.40531,0.90526 0.90526,0.90526z" fill="none"/>
     <path stroke="null" id="svg_29" d="m37.91287,13.01335c0.21646,0 0.39262,-0.17616 0.39262,-0.39262s-0.17616,-0.39262 -0.39262,-0.39262c-0.21646,0 -0.39262,0.17616 -0.39262,0.39262s0.17616,0.39262 0.39262,0.39262m0,0.51264c-0.49996,0 -0.90526,-0.40531 -0.90526,-0.90526s0.40531,-0.90526 0.90526,-0.90526c0.49996,0 0.90526,0.40531 0.90526,0.90526s-0.40531,0.90526 -0.90526,0.90526z" fill="#8682F8"/>
    </g>
    <g stroke="null" id="组_804">
     <path stroke="null" id="svg_30" d="m26.60025,30.02425l-1.338,0c-0.14155,0 -0.25632,-0.11477 -0.25632,-0.25632s0.11477,-0.25632 0.25632,-0.25632l1.338,0c0.14155,0 0.25632,0.11477 0.25632,0.25632s-0.11477,0.25632 -0.25632,0.25632z" fill="#8682F8"/>
     <path stroke="null" id="svg_31" d="m25.93125,30.69325c-0.14155,0 -0.25632,-0.11477 -0.25632,-0.25632l0,-1.338c0,-0.14155 0.11477,-0.25632 0.25632,-0.25632s0.25632,0.11477 0.25632,0.25632l0,1.338c0,0.14155 -0.11477,0.25632 -0.25632,0.25632z" fill="#8682F8"/>
    </g>
    <g stroke="null" id="组_801">
     <path stroke="null" id="svg_32" d="m9.231,10.22226l-1.58298,0c-0.14155,0 -0.25632,-0.11477 -0.25632,-0.25632s0.11477,-0.25632 0.25632,-0.25632l1.58298,0c0.14155,0 0.25632,0.11477 0.25632,0.25632s-0.11477,0.25632 -0.25632,0.25632z" fill="#8682F8"/>
     <path stroke="null" id="svg_33" d="m8.43955,11.07466c-0.14155,0 -0.25632,-0.11477 -0.25632,-0.25632l0,-1.58298c0,-0.14155 0.11477,-0.25632 0.25632,-0.25632s0.25632,0.11477 0.25632,0.25632l0,1.58298c0,0.14155 -0.11477,0.25632 -0.25632,0.25632z" fill="#8682F8"/>
    </g>
    <g stroke="null" id="组_803">
     <g stroke="null" id="组_775">
      <g stroke="null" id="组_770">
       <path stroke="null" id="svg_34" d="m14.17006,32.6263c-0.14155,0 -0.25632,-0.11477 -0.25632,-0.25632l0,-0.4692c0,-0.14155 0.11477,-0.25632 0.25632,-0.25632s0.25632,0.11477 0.25632,0.25632l0,0.4692c0,0.14155 -0.11477,0.25632 -0.25632,0.25632z" fill="#8682F8"/>
       <path stroke="null" id="svg_35" d="m14.17006,34.72122c-0.14155,0 -0.25632,-0.11477 -0.25632,-0.25632l0,-0.4692c0,-0.14155 0.11477,-0.25632 0.25632,-0.25632s0.25632,0.11477 0.25632,0.25632l0,0.4692c0,0.14155 -0.11477,0.25632 -0.25632,0.25632z" fill="#8682F8"/>
      </g>
      <g stroke="null" transform="matrix(0 -0.0640804 0.0640804 0 -55.7639 75.1356)" id="组_771">
       <path stroke="null" id="svg_36" d="m650.69016,1078.662l0,-7.322c0,-2.209 1.791,-4 4,-4s4,1.791 4,4l0,7.322c0,2.209 -1.791,4 -4,4s-4,-1.791 -4,-4z" fill="#8682F8"/>
       <path stroke="null" id="svg_37" d="m650.69016,1111.354l0,-7.321c0,-2.209 1.791,-4 4,-4s4,1.791 4,4l0,7.321c0,2.209 -1.791,4 -4,4s-4,-1.791 -4,-4z" fill="#8682F8"/>
      </g>
      <g stroke="null" transform="matrix(0.0453117 -0.0453117 0.0453117 0.0453117 -55.4412 51.5627)" id="组_772">
       <path stroke="null" id="svg_38" d="m968.1254,555.46515c-0.724,-0.724 -1.171,-1.724 -1.171,-2.829l0,-7.321c0,-2.209 1.791,-4 4,-4c2.21,0 4,1.791 4,4l0,7.321c0,2.209 -1.791,4 -4,4c-1.105,0.001 -2.105,-0.447 -2.829,-1.171z" fill="#8682F8"/>
       <path stroke="null" id="svg_39" d="m968.1254,588.15815c-0.724,-0.724 -1.171,-1.724 -1.171,-2.829l0,-7.322c0,-2.209 1.791,-4 4,-4c2.21,0 4,1.791 4,4l0,7.322c0,2.209 -1.791,4 -4,4c-1.105,0 -2.105,-0.447 -2.829,-1.171z" fill="#8682F8"/>
      </g>
      <g stroke="null" transform="matrix(-0.0453117 -0.0453117 0.0453117 -0.0453117 -38.7924 93.3144)" id="组_773">
       <path stroke="null" id="svg_40" d="m76.28086,1257.8134c0.724,-0.724 1.724,-1.171 2.829,-1.171c2.209,0 4,1.791 4,4l0,7.322c0,2.21 -1.791,4 -4,4c-2.209,0 -4,-1.791 -4,-4l0,-7.322c-0.001,-1.105 0.447,-2.105 1.171,-2.829z" fill="#8682F8"/>
       <path stroke="null" id="svg_41" d="m76.27986,1225.1224c0.724,-0.724 1.724,-1.172 2.828,-1.172c2.21,0 4,1.791 4.001,4l0,7.321c0,2.208 -1.791,4 -3.999,4.001c-2.21,0 -4,-1.791 -4.001,-4l0,-7.322c-0.001,-1.104 0.447,-2.104 1.171,-2.828z" fill="#8682F8"/>
      </g>
     </g>
    </g>
    <g stroke="null" id="组_802">
     <g stroke="null" id="组_775-2">
      <g stroke="null" id="组_770-2">
       <path stroke="null" id="svg_42" d="m37.94292,18.97718c-0.14155,0 -0.25632,-0.11477 -0.25632,-0.25632l0,-0.4692c0,-0.14155 0.11477,-0.25632 0.25632,-0.25632s0.25632,0.11477 0.25632,0.25632l0,0.4692c0,0.14155 -0.11477,0.25632 -0.25632,0.25632z" fill="#8682F8"/>
       <path stroke="null" id="svg_43" d="m37.94292,21.0721c-0.14155,0 -0.25632,-0.11477 -0.25632,-0.25632l0,-0.4692c0,-0.14155 0.11477,-0.25632 0.25632,-0.25632s0.25632,0.11477 0.25632,0.25632l0,0.4692c0,0.14155 -0.11477,0.25632 -0.25632,0.25632z" fill="#8682F8"/>
      </g>
      <g stroke="null" transform="matrix(0 -0.0640804 0.0640804 0 -18.3419 85.2594)" id="组_771-2">
       <path stroke="null" id="svg_44" d="m1021.67516,865.662l0,-7.322c0,-2.209 1.791,-4 4,-4s4,1.791 4,4l0,7.321c0,2.209 -1.791,4 -4,4s-4,-1.79 -4,-3.999z" fill="#8682F8"/>
       <path stroke="null" id="svg_45" d="m1021.67516,898.354l0,-7.322c0,-2.209 1.791,-4 4,-4s4,1.791 4,4l0,7.322c0,2.209 -1.791,4 -4,4s-4,-1.791 -4,-4z" fill="#8682F8"/>
      </g>
      <g stroke="null" transform="matrix(0.0453117 -0.0453117 0.0453117 0.0453117 -38.8269 64.3749)" id="组_772-2">
       <path stroke="null" id="svg_46" d="m1339.11139,342.46515c-0.724,-0.723 -1.171,-1.723 -1.172,-2.828l0,-7.322c0,-2.209 1.791,-4 4,-4c2.208,-0.001 3.999,1.79 4,3.999l0,7.322c0,2.209 -1.791,4 -4,4c-1.104,0.001 -2.105,-0.447 -2.828,-1.171z" fill="#8682F8"/>
       <path stroke="null" id="svg_47" d="m1339.11139,375.15815c-0.724,-0.724 -1.171,-1.724 -1.171,-2.828l0,-7.322c0,-2.209 1.791,-4 4,-4c2.208,-0.001 3.999,1.79 4,3.999l0,7.322c0,2.209 -1.791,4 -4,4c-1.105,0 -2.105,-0.448 -2.829,-1.171z" fill="#8682F8"/>
      </g>
      <g stroke="null" transform="matrix(-0.0453117 -0.0453117 0.0453117 -0.0453117 11.4418 86.8239)" id="组_773-2">
       <path stroke="null" id="svg_48" d="m447.26585,1044.8144c0.723,-0.724 1.724,-1.172 2.828,-1.171c2.209,0 4,1.791 4,4l0,7.322c-0.001,2.209 -1.792,4.001 -4,3.999c-2.209,0 -4,-1.791 -4,-4l0,-7.322c0,-1.105 0.448,-2.105 1.172,-2.828z" fill="#8682F8"/>
       <path stroke="null" id="svg_49" d="m447.26585,1012.1214c0.724,-0.723 1.724,-1.171 2.828,-1.171c2.209,0 4,1.791 4,4l0,7.322c-0.001,2.209 -1.792,4.001 -4,3.999c-2.209,0 -4,-1.791 -4,-4l0,-7.321c0.001,-1.105 0.448,-2.105 1.172,-2.829z" fill="#8682F8"/>
      </g>
     </g>
    </g>
   </g>
  </g>
 </g>
</svg>