<?xml version="1.0" standalone="no"?><!DOCTYPE svg PUBLIC "-//W3C//DTD SVG 1.1//EN" "http://www.w3.org/Graphics/SVG/1.1/DTD/svg11.dtd"><svg t="1701678369373" class="icon" viewBox="0 0 1024 1024" version="1.1" xmlns="http://www.w3.org/2000/svg" p-id="1612" xmlns:xlink="http://www.w3.org/1999/xlink" width="200" height="200"><path d="M705.5872 307.2l-51.2 0L654.3872 102.4l51.2 0L705.5872 307.2zM705.5872 921.6l-51.2 0 0-204.8 51.2 0L705.5872 921.6zM807.9872 716.8 807.9872 307.2l-256 0 0 409.6L807.9872 716.8z" p-id="1613" fill="white"></path><path d="M270.3872 102.4l51.2 0 0 102.4-51.2 0 0-102.4Z" p-id="1614" fill="white"></path><path d="M270.3872 819.2l51.2 0 0 102.4-51.2 0 0-102.4Z" p-id="1615" fill="white"></path><path d="M398.3872 256l0 512-204.8 0L193.5872 256 398.3872 256M449.5872 204.8l-307.2 0 0 614.4 307.2 0L449.5872 204.8 449.5872 204.8z" p-id="1616" fill="white"></path></svg>