<?xml version="1.0" standalone="no"?><!DOCTYPE svg PUBLIC "-//W3C//DTD SVG 1.1//EN" "http://www.w3.org/Graphics/SVG/1.1/DTD/svg11.dtd"><svg t="1700641004564" class="icon" viewBox="0 0 1024 1024" version="1.1" xmlns="http://www.w3.org/2000/svg" p-id="13200" xmlns:xlink="http://www.w3.org/1999/xlink" width="206.0546875" height="200"><path d="M92.570719 993.609338h932.700857V30.390662z" fill="#1aaba8" p-id="13201" data-spm-anchor-id="a313x.search_index.0.i25.30353a81VsO06a" class=""></path><path d="M1025.271576 1024H92.570719a30.263504 30.263504 0 0 1-21.871104-50.863032L1003.527629 9.282503A30.390662 30.390662 0 0 1 1055.407923 30.390662v963.218676a30.390662 30.390662 0 0 1-30.136347 30.390662z m-860.983981-60.781324h830.593319V105.540792z" fill="#1aaba8" p-id="13202" data-spm-anchor-id="a313x.search_index.0.i27.30353a81VsO06a" class=""></path><path d="M508.630324 811.138209h323.997517V476.586614z" fill="#FFFFFF" p-id="13203"></path><path d="M832.627841 831.356265H508.630324a20.218055 20.218055 0 0 1-14.495964-34.332547l323.997516-334.551596a20.218055 20.218055 0 0 1 34.841178 14.114492v334.551595a20.218055 20.218055 0 0 1-20.345213 20.218056zM556.568732 790.920154h255.841053V526.686701z" fill="#2c2c2c" p-id="13204" data-spm-anchor-id="a313x.search_index.0.i31.30353a81VsO06a" class="selected"></path><path d="M1025.271576 314.33354h-101.726065a20.345213 20.345213 0 0 1 0-40.563268h101.726065a20.345213 20.345213 0 1 1 0 40.563268zM1025.271576 385.287471h-70.95393a20.345213 20.345213 0 0 1 0-40.563269h70.95393a20.345213 20.345213 0 1 1 0 40.563269zM1025.271576 456.241401h-101.726065a20.345213 20.345213 0 0 1 0-40.563269h101.726065a20.345213 20.345213 0 1 1 0 40.563269zM1025.271576 527.195331h-70.95393a20.345213 20.345213 0 0 1 0-40.563268h70.95393a20.345213 20.345213 0 1 1 0 40.563268zM1025.271576 598.276419h-101.726065a20.345213 20.345213 0 0 1 0-40.563269h101.726065a20.345213 20.345213 0 1 1 0 40.563269zM1025.271576 669.230349h-70.95393a20.345213 20.345213 0 0 1 0-40.563268h70.95393a20.345213 20.345213 0 1 1 0 40.563268zM1025.271576 740.184279h-101.726065a20.345213 20.345213 0 0 1 0-40.563268h101.726065a20.345213 20.345213 0 1 1 0 40.563268zM1025.271576 811.138209h-70.95393a20.345213 20.345213 0 0 1 0-40.563268h70.95393a20.345213 20.345213 0 1 1 0 40.563268zM1025.271576 882.09214h-101.726065a20.345213 20.345213 0 0 1 0-40.563269h101.726065a20.345213 20.345213 0 1 1 0 40.563269z" fill="#2c2c2c" p-id="13205" data-spm-anchor-id="a313x.search_index.0.i30.30353a81VsO06a" class="selected"></path><path d="M145.0868 770.574941l-114.696138-114.696138 523.380603-523.380604L761.67391 39.291693l-93.206507 207.902645L145.0868 770.574941z" fill="#B9E3ED" p-id="13206"></path><path d="M145.0868 801.09276a30.263504 30.263504 0 0 1-21.489631-8.90103l-114.441823-114.441823a30.390662 30.390662 0 0 1 0-42.979263L532.281634 111.008568a31.02645 31.02645 0 0 1 9.028188-6.230721L749.212467 11.57134a30.517819 30.517819 0 0 1 40.308954 40.181795l-93.206507 207.902645a29.754874 29.754874 0 0 1-6.357879 9.028189L166.576431 792.064572a29.754874 29.754874 0 0 1-21.489631 9.028188zM73.497082 655.878803l71.589718 71.716876 497.949087-497.949088 58.238172-129.955047-129.955047 58.238172z" fill="#324654" p-id="13207"></path><path d="M596.750528 204.215075L94.986713 706.106047" fill="#B9E3ED" p-id="13208"></path><path d="M94.986713 726.324103a19.836583 19.836583 0 0 1-14.368807-5.976406 20.218055 20.218055 0 0 1 0-28.610456l501.890973-501.890973a20.218055 20.218055 0 0 1 28.610455 28.737614L109.228362 720.347697a19.709425 19.709425 0 0 1-14.241649 5.976406z" fill="#2c2c2c" p-id="13209" data-spm-anchor-id="a313x.search_index.0.i24.30353a81VsO06a" class="selected"></path><path d="M553.771265 132.498199l114.696138 114.696139" fill="#B9E3ED" p-id="13210"></path><path d="M668.467403 267.03092a20.218055 20.218055 0 0 1-14.241649-5.976406l-114.441823-114.441823a20.345213 20.345213 0 1 1 28.737614-28.737613l114.441823 114.441823A20.345213 20.345213 0 0 1 668.467403 267.03092z" fill="#324654" p-id="13211"></path></svg>