<svg width="1024" height="1024" xmlns="http://www.w3.org/2000/svg" data-spm-anchor-id="a313x.search_index.0.i35.199d3a81eGgO08" p-id="29571" version="1.1" class="icon" t="1700642091003" viewBox="0 0 1024 1024">

 <g>
  <title>Layer 1</title>
  <path id="svg_1" data-spm-anchor-id="a313x.search_index.0.i33.199d3a81eGgO08" p-id="29572" opacity="0.955" fill="#bf0000" d="m918.144,105.87733c27.776,27.79734 27.30667,73.344 -1.06667,101.73867l-282.79466,283.05067c-28.37334,28.37333 -73.87734,28.84266 -101.65334,1.06666c-27.776,-27.81866 -27.30666,-73.36533 1.06667,-101.76l282.79467,-283.02933c28.37333,-28.37333 73.87733,-28.84267 101.65333,-1.04533l0,-0.02134zm-426.02667,426.38934c27.776,27.81866 27.30667,73.36533 -1.06666,101.76l-282.79467,283.02933c-28.37333,28.37333 -73.87733,28.84267 -101.65333,1.04533c-27.776,-27.79733 -27.30667,-73.344 1.06666,-101.73866l282.79467,-283.02934c28.37333,-28.37333 73.87733,-28.84266 101.65333,-1.06666z"/>
  <path id="svg_2" data-spm-anchor-id="a313x.search_index.0.i32.199d3a81eGgO08" p-id="29573" opacity="0.955" fill="#ff0000" d="m916.864,917.58933c-27.776,27.79734 -73.28,27.328 -101.632,-1.06666l-708.30933,-708.88534c-28.37334,-28.37333 -28.84267,-73.94133 -1.06667,-101.73866s73.28,-27.30667 101.65333,1.06666l708.30934,708.90667c28.352,28.37333 28.82133,73.94133 1.04533,101.73867l0,-0.02134z"/>
 </g>
</svg>