<svg width="1024" height="1024" xmlns="http://www.w3.org/2000/svg" p-id="3088" version="1.1" class="icon" t="1700643742565" viewBox="0 0 1024 1024">

 <g>
  <title>Layer 1</title>
  <g stroke="null" id="svg_12">
   <path stroke="null" id="svg_1" p-id="3089" fill="#3678BF" d="m949.23481,13.87134l-874.46961,0c-34.49711,0 -62.45746,34.30166 -62.45746,76.63852l0,798.93865l108.31244,120.68015l828.61463,0c34.49711,0 62.45746,-34.30166 62.45746,-76.63852l0,-842.98028c0,-42.33686 -27.97121,-76.63852 -62.45746,-76.63852z"/>
   <path stroke="null" id="svg_2" p-id="3090" fill="#707272" d="m50.51839,98.31704l55.1932,0l0,77.07285l-55.1932,0l0,-77.07285z"/>
   <path stroke="null" id="svg_3" p-id="3091" fill="#A5A5A5" d="m53.23299,130.53388l49.764,0l0,41.75051l-49.764,0l0,-41.75051z"/>
   <path stroke="null" id="svg_4" p-id="3092" fill="#245B8E" d="m167.24609,301.30379l0,213.16106c0,19.62111 11.72706,35.52865 26.16872,35.52865l680.59305,0c14.46338,0 26.17958,-15.9184 26.17958,-35.52865l0,-213.16106l-732.94135,0zm711.23543,691.66861l0,-279.62527c0,-25.73439 -10.66294,-46.61507 -23.80159,-46.61507l-618.94997,0c-13.14951,0 -23.81245,20.88068 -23.81245,46.61507l0,279.62527l666.56401,0z"/>
   <path stroke="null" id="svg_5" p-id="3093" fill="#EAEAEA" d="m740.02618,992.9724l0,-267.99593c0,-24.6594 -8.31753,-44.67142 -18.53527,-44.67142l-481.99309,0c-10.23946,0 -18.54613,20.01201 -18.54613,44.67142l0,267.99593l519.07449,0z"/>
   <path stroke="null" id="svg_6" p-id="3094" fill="#A5A5A5" d="m409.40991,927.33343l0,-190.79278c0,-17.55802 -2.20425,-31.80423 -4.89713,-31.80423l-127.33634,0c-2.70374,0 -4.89713,14.24621 -4.89713,31.80423l0,190.79278l137.13061,0z"/>
   <path stroke="null" id="svg_7" p-id="3095" fill="#878787" d="m404.51278,704.73643l-30.39263,0l0,186.40599l-101.84084,0l0,36.19102l137.13061,0l0,-190.79278c0,-17.55802 -2.19339,-31.80423 -4.89713,-31.80423z"/>
   <path stroke="null" id="svg_8" p-id="3096" fill="#EAEAEA" d="m219.60525,312.16218l0,169.10857c0,23.33468 23.42155,42.29343 52.33744,42.29343l523.53729,0c28.90504,0 52.3483,-18.94789 52.3483,-42.29343l0,-169.10857l-628.22303,0z"/>
   <path stroke="null" id="svg_9" p-id="3097" fill="#245B8E" d="m167.24609,25.47896l0,305.31622c0,28.11237 11.72706,50.90413 26.16872,50.90413l680.59305,0c14.46338,0 26.17958,-22.79176 26.17958,-50.90413l0,-305.31622l-732.94135,0z"/>
   <path stroke="null" id="svg_10" p-id="3098" fill="#EAEAEA" d="m219.59439,25.47896l0,347.9354c0,48.02666 23.42155,86.99742 52.33744,86.99742l523.52643,0c28.91589,0 52.35916,-38.97076 52.35916,-86.99742l0,-347.9354l-628.22303,0z"/>
   <path stroke="null" id="svg_11" p-id="3099" fill="#ACB8BC" d="m256.82781,155.70363l553.77791,0l0,9.12105l-553.77791,0l0,-9.12105zm-4.19134,67.4849l553.77791,0l0,9.12105l-553.77791,0l0,-9.12105zm0,67.4849l553.77791,0l0,9.12105l-553.77791,0l0,-9.12105zm0,67.49575l553.77791,0l0,9.12105l-553.77791,0l0,-9.12105zm0,67.4849l553.77791,0l0,9.12105l-553.77791,0l0,-9.12105z"/>
  </g>
 </g>
</svg>