<svg width="1024" height="1024" xmlns="http://www.w3.org/2000/svg" data-spm-anchor-id="a313x.search_index.0.i2.264a3a81bOrpPG" p-id="4499" version="1.1" class="icon" t="1700805338388" viewBox="0 0 1024 1024">

 <g>
  <title>Layer 1</title>
  <path id="svg_2" p-id="4501" d="m870.4,358.4l-204.8,0c-56.32,0 -102.4,-46.08 -102.4,-102.4l0,-204.8l-358.4,0c-30.72,0 -51.2,20.48 -51.2,51.2l0,819.2c0,30.72 20.48,51.2 51.2,51.2l614.4,0c30.72,0 51.2,-20.48 51.2,-51.2l0,-563.2zm-20.48,-51.2l-235.52,-235.52l0,184.32c0,30.72 20.48,51.2 51.2,51.2l184.32,0zm-276.48,-307.2c25.6,0 51.2,10.24 71.68,30.72l245.76,245.76c20.48,20.48 30.72,46.08 30.72,71.68l0,573.44c0,56.32 -46.08,102.4 -102.4,102.4l-614.4,0c-56.32,0 -102.4,-46.08 -102.4,-102.4l0,-819.2c0,-56.32 46.08,-102.4 102.4,-102.4l368.64,0z"/>
 </g>
</svg>