<svg width="200" height="200" viewBox="0 0 1024 1024" xmlns="http://www.w3.org/2000/svg" t="1707035288022" class="icon" version="1.1" p-id="15174">
 <g>
  <title>Layer 1</title>
  <g stroke="null" id="svg_4">
   <path stroke="null" d="m593.77867,635.11734l164.456,0l5.84133,-0.44933l0.89867,0c18.872,-3.59467 32.352,-20.22 32.352,-39.54133c0,-22.01733 -17.524,-40.44 -39.54133,-40.44l-164.00667,0l-6.29067,0.44933l-0.89867,0c-18.872,3.59467 -32.352,20.22 -32.352,39.54133c0,10.784 4.044,20.66933 11.23333,28.308c7.63867,7.63867 17.524,11.68267 28.308,12.132zm0,-328.01334l164.456,0l5.84133,-0.44933l0.89867,0c18.872,-3.59467 32.352,-20.22 32.352,-39.54133c0,-22.01733 -17.524,-40.44 -39.54133,-40.44l-164.00667,0l-6.29067,0.44933l-0.89867,0c-18.872,3.59467 -32.352,20.22 -32.352,39.54133c0,22.01733 17.524,40.44 39.54133,40.44zm0,164.00667l164.456,0l5.84133,-0.44933l0.89867,0c18.872,-3.59467 32.352,-20.22 32.352,-39.54133c0,-22.01733 -17.524,-40.44 -39.54133,-40.44l-164.00667,0l-6.29067,0.44933l-0.89867,0c-18.872,3.59467 -32.352,20.22 -32.352,39.54133c0,10.784 4.044,20.66933 11.23333,28.308c7.63867,7.63867 17.524,12.132 28.308,12.132z"  p-id="15175" id="svg_1"/>
   <path stroke="null" d="m860.23334,62.66666l-696.46668,0c-55.71733,0 -101.1,45.38267 -101.1,101.1l0,696.46668c0,55.71733 45.38267,101.1 101.1,101.1l696.46668,0c55.71733,0 101.1,-45.38267 101.1,-101.1l0,-696.46668c0,-55.71733 -45.38267,-101.1 -101.1,-101.1zm-718.48402,101.1c0,-12.132 9.88533,-22.01733 22.01733,-22.01733l696.46668,0c12.132,0 22.01733,9.88533 22.01733,22.01733l0,696.46668c0,12.132 -9.88533,22.01733 -22.01733,22.01733l-696.46668,0c-12.132,0 -22.01733,-9.88533 -22.01733,-22.01733l0,-696.46668z"  p-id="15176" id="svg_2"/>
   <path stroke="null" d="m266.21466,797.32667l164.00667,0c22.01733,0 39.54133,-17.524 39.54133,-39.54133l0,-164.00667c0,-21.568 -17.97333,-39.54133 -39.54133,-39.54133l-164.00667,0c-22.01733,0 -39.54133,17.524 -39.54133,39.54133l0,164.00667c0,22.01733 17.524,39.54133 39.54133,39.54133zm134.35067,-173.892l0,105.144l-105.144,0l0,-105.144l105.144,0zm-134.35067,-153.672l164.00667,0c22.01733,0 39.54133,-17.524 39.54133,-39.54133l0,-164.00667c0,-22.01733 -17.97333,-39.54133 -39.54133,-39.54133l-164.00667,0c-22.01733,0 -39.54133,17.524 -39.54133,39.54133l0,164.00667c0,21.568 17.524,39.54133 39.54133,39.54133zm134.35067,-174.34134l0,105.144l-105.144,0l0,-105.144l105.144,0zm193.21334,503.70268l164.456,0l5.84133,-0.44933l0.89867,0c18.872,-3.59467 32.352,-20.22 32.352,-39.54133c0,-22.01733 -17.524,-40.44 -39.54133,-40.44l-164.00667,0l-6.29067,0.44933l-0.89867,0c-18.872,3.59467 -32.352,20.22 -32.352,39.54133c0,22.01733 17.524,39.99067 39.54133,40.44z"  p-id="15177" id="svg_3"/>
  </g>
 </g>

</svg>