<svg width="200" height="200" viewBox="0 0 1024 1024" xmlns="http://www.w3.org/2000/svg" p-id="15174" version="1.1" class="icon" t="1707035288022">

 <g>
  <title>Layer 1</title>
  <g stroke="null" id="svg_4">
   <path stroke="null" id="svg_1" p-id="15175" d="m600.33067,644.98134l177.632,0l6.30933,-0.48533l0.97067,0c20.384,-3.88267 34.944,-21.84 34.944,-42.70933c0,-23.78133 -18.928,-43.68 -42.70933,-43.68l-177.14667,0l-6.79467,0.48533l-0.97067,0c-20.384,3.88267 -34.944,21.84 -34.944,42.70933c0,11.648 4.368,22.32533 12.13333,30.576c8.25067,8.25067 18.928,12.61867 30.576,13.104zm0,-354.29334l177.632,0l6.30933,-0.48533l0.97067,0c20.384,-3.88267 34.944,-21.84 34.944,-42.70933c0,-23.78133 -18.928,-43.68 -42.70933,-43.68l-177.14667,0l-6.79467,0.48533l-0.97067,0c-20.384,3.88267 -34.944,21.84 -34.944,42.70933c0,23.78133 18.928,43.68 42.70933,43.68zm0,177.14667l177.632,0l6.30933,-0.48533l0.97067,0c20.384,-3.88267 34.944,-21.84 34.944,-42.70933c0,-23.78133 -18.928,-43.68 -42.70933,-43.68l-177.14667,0l-6.79467,0.48533l-0.97067,0c-20.384,3.88267 -34.944,21.84 -34.944,42.70933c0,11.648 4.368,22.32533 12.13333,30.576c8.25067,8.25067 18.928,13.104 30.576,13.104z"/>
   <path stroke="null" id="svg_2" p-id="15176" d="m888.13334,26.66666l-752.26668,0c-60.18133,0 -109.2,49.01867 -109.2,109.2l0,752.26668c0,60.18133 49.01867,109.2 109.2,109.2l752.26668,0c60.18133,0 109.2,-49.01867 109.2,-109.2l0,-752.26668c0,-60.18133 -49.01867,-109.2 -109.2,-109.2zm-776.04802,109.2c0,-13.104 10.67733,-23.78133 23.78133,-23.78133l752.26668,0c13.104,0 23.78133,10.67733 23.78133,23.78133l0,752.26668c0,13.104 -10.67733,23.78133 -23.78133,23.78133l-752.26668,0c-13.104,0 -23.78133,-10.67733 -23.78133,-23.78133l0,-752.26668z"/>
   <path stroke="null" id="svg_3" p-id="15177" d="m246.52266,820.18667l177.14667,0c23.78133,0 42.70933,-18.928 42.70933,-42.70933l0,-177.14667c0,-23.296 -19.41333,-42.70933 -42.70933,-42.70933l-177.14667,0c-23.78133,0 -42.70933,18.928 -42.70933,42.70933l0,177.14667c0,23.78133 18.928,42.70933 42.70933,42.70933zm145.11467,-187.824l0,113.568l-113.568,0l0,-113.568l113.568,0zm-145.11467,-165.984l177.14667,0c23.78133,0 42.70933,-18.928 42.70933,-42.70933l0,-177.14667c0,-23.78133 -19.41333,-42.70933 -42.70933,-42.70933l-177.14667,0c-23.78133,0 -42.70933,18.928 -42.70933,42.70933l0,177.14667c0,23.296 18.928,42.70933 42.70933,42.70933zm145.11467,-188.30934l0,113.568l-113.568,0l0,-113.568l113.568,0zm208.69334,544.05868l177.632,0l6.30933,-0.48533l0.97067,0c20.384,-3.88267 34.944,-21.84 34.944,-42.70933c0,-23.78133 -18.928,-43.68 -42.70933,-43.68l-177.14667,0l-6.79467,0.48533l-0.97067,0c-20.384,3.88267 -34.944,21.84 -34.944,42.70933c0,23.78133 18.928,43.19467 42.70933,43.68z"/>
  </g>
 </g>
</svg>