<?xml version="1.0" standalone="no"?><!DOCTYPE svg PUBLIC "-//W3C//DTD SVG 1.1//EN" "http://www.w3.org/Graphics/SVG/1.1/DTD/svg11.dtd"><svg t="1706516229752" class="icon" viewBox="0 0 1024 1024" version="1.1" xmlns="http://www.w3.org/2000/svg" p-id="3013" xmlns:xlink="http://www.w3.org/1999/xlink" width="200" height="200"><path d="M719.97 959.93c-21.2 0-38.39-17.19-38.39-38.39s17.19-38.39 38.39-38.39 38.39 17.19 38.39 38.39-17.19 38.39-38.39 38.39zM528 927.94c0 17.67-14.32 31.99-31.99 31.99H240.05c-33.67 1.64-62.3-24.33-63.95-58-0.02-0.35-0.03-0.71-0.04-1.06v-777.8c1.05-33.66 29.2-60.1 62.86-59.04 0.38 0.01 0.75 0.03 1.13 0.05h311.37c17.18 0.05 33.63 6.96 45.69 19.2l232.54 236.76a63.964 63.964 0 0 1 18.3 44.79v83.19c0 17.67-14.32 31.99-31.99 31.99h-0.01c-17.67 0-31.99-14.32-31.99-31.99v-63.16H528V128.07H240.05v767.87h255.96c17.66 0 31.99 14.32 31.99 32z m63.99-758.54v151.46h148.58L591.99 169.4z m127.98 657.43c-17.68 0-32-14.32-32-31.99V784.6c0.18-31.75 20.01-60.07 49.78-71.09 24.36-7.18 42.37-27.81 46.2-52.92-1.89-33.51-30.46-59.23-63.99-57.59-26.53-1.27-49.95 14.57-59.52 37.85-4.86 11.83-16.15 19.74-28.94 19.74h-1.94c-21.88 0-36.98-22.03-28.96-42.39 18.69-47.43 65.45-80.45 119.35-79.19 68.85-1.61 126.06 52.73 127.98 121.58-3.56 51.75-38.01 96.22-87.22 112.62a12.813 12.813 0 0 0-8.77 11.39v10.24c0.02 17.67-14.3 31.99-31.97 31.99z" p-id="3014"></path></svg>